<svg width="14" height="17" viewBox="0 0 14 17" fill="none" xmlns="http://www.w3.org/2000/svg">
<path d="M13.4651 5.8375C12.6776 2.3725 9.65507 0.8125 7.00007 0.8125C7.00007 0.8125 7.00007 0.8125 6.99257 0.8125C4.34507 0.8125 1.31507 2.365 0.527572 5.83C-0.349928 9.7 2.02007 12.9775 4.16507 15.04C4.96007 15.805 5.98007 16.1875 7.00007 16.1875C8.02007 16.1875 9.04007 15.805 9.82757 15.04C11.9726 12.9775 14.3426 9.7075 13.4651 5.8375ZM7.00007 9.595C5.69507 9.595 4.63757 8.5375 4.63757 7.2325C4.63757 5.9275 5.69507 4.87 7.00007 4.87C8.30507 4.87 9.36257 5.9275 9.36257 7.2325C9.36257 8.5375 8.30507 9.595 7.00007 9.595Z" fill="#292D32"/>
</svg>
