<svg width="34" height="35" viewBox="0 0 34 35" fill="none" xmlns="http://www.w3.org/2000/svg">
<path d="M23.9834 0.728882H10.0167C3.95004 0.728882 0.333374 4.34555 0.333374 10.4122V24.3622C0.333374 30.4455 3.95004 34.0622 10.0167 34.0622H23.9667C30.0334 34.0622 33.65 30.4455 33.65 24.3789V10.4122C33.6667 4.34555 30.05 0.728882 23.9834 0.728882ZM23.6667 18.6455H18.25V24.0622C18.25 24.7455 17.6834 25.3122 17 25.3122C16.3167 25.3122 15.75 24.7455 15.75 24.0622V18.6455H10.3334C9.65004 18.6455 9.08337 18.0789 9.08337 17.3955C9.08337 16.7122 9.65004 16.1455 10.3334 16.1455H15.75V10.7289C15.75 10.0455 16.3167 9.47888 17 9.47888C17.6834 9.47888 18.25 10.0455 18.25 10.7289V16.1455H23.6667C24.35 16.1455 24.9167 16.7122 24.9167 17.3955C24.9167 18.0789 24.35 18.6455 23.6667 18.6455Z" fill="#00A51E"/>
</svg>
