<svg width="40" height="41" viewBox="0 0 40 41" fill="none" xmlns="http://www.w3.org/2000/svg">
<path d="M26.9835 3.36084H13.0168C6.95016 3.36084 3.3335 6.97751 3.3335 13.0442V26.9942C3.3335 33.0775 6.95016 36.6942 13.0168 36.6942H26.9668C33.0335 36.6942 36.6502 33.0775 36.6502 27.0108V13.0442C36.6668 6.97751 33.0502 3.36084 26.9835 3.36084ZM26.6668 21.2775H21.2502V26.6942C21.2502 27.3775 20.6835 27.9442 20.0002 27.9442C19.3168 27.9442 18.7502 27.3775 18.7502 26.6942V21.2775H13.3335C12.6502 21.2775 12.0835 20.7108 12.0835 20.0275C12.0835 19.3442 12.6502 18.7775 13.3335 18.7775H18.7502V13.3608C18.7502 12.6775 19.3168 12.1108 20.0002 12.1108C20.6835 12.1108 21.2502 12.6775 21.2502 13.3608V18.7775H26.6668C27.3502 18.7775 27.9168 19.3442 27.9168 20.0275C27.9168 20.7108 27.3502 21.2775 26.6668 21.2775Z" fill="#FF3A3A"/>
</svg>
