<svg width="40" height="41" xmlns="http://www.w3.org/2000/svg" fill="none">

 <g>
  <title>Layer 1</title>
  <path id="svg_1" fill="#00a41e" d="m26.9835,3.36084l-13.9667,0c-6.06664,0 -9.6833,3.61667 -9.6833,9.68336l0,13.95c0,6.0833 3.61666,9.7 9.6833,9.7l13.95,0c6.0667,0 9.6834,-3.6167 9.6834,-9.6834l0,-13.9666c0.0166,-6.06669 -3.6,-9.68336 -9.6667,-9.68336zm-0.3167,17.91666l-5.4166,0l0,5.4167c0,0.6833 -0.5667,1.25 -1.25,1.25c-0.6834,0 -1.25,-0.5667 -1.25,-1.25l0,-5.4167l-5.4167,0c-0.6833,0 -1.25,-0.5667 -1.25,-1.25c0,-0.6833 0.5667,-1.25 1.25,-1.25l5.4167,0l0,-5.4167c0,-0.6833 0.5666,-1.25 1.25,-1.25c0.6833,0 1.25,0.5667 1.25,1.25l0,5.4167l5.4166,0c0.6834,0 1.25,0.5667 1.25,1.25c0,0.6833 -0.5666,1.25 -1.25,1.25z"/>
 </g>
</svg>