<svg width="142" height="39" viewBox="0 0 142 39" fill="none" xmlns="http://www.w3.org/2000/svg">
<rect width="142" height="39" rx="8" fill="#FAFBFC"/>
<path d="M39.0341 19.636C39.009 17.1093 41.3227 15.88 41.4285 15.8228C40.1181 14.0957 38.0871 13.8598 37.3734 13.8409C35.6676 13.6787 34.0129 14.7637 33.144 14.7637C32.2577 14.7637 30.9196 13.8566 29.4774 13.8833C27.6216 13.9091 25.8854 14.8805 24.9332 16.3888C22.9681 19.4643 24.4337 23.9838 26.3164 26.4697C27.2582 27.6872 28.3587 29.0466 29.7992 28.9988C31.2084 28.9462 31.7348 28.1866 33.4354 28.1866C35.1204 28.1866 35.6147 28.9988 37.0838 28.9682C38.5962 28.9462 39.5484 27.7452 40.4572 26.5168C41.5456 25.1213 41.9827 23.747 42 23.6765C41.9644 23.6655 39.0627 22.6644 39.0341 19.636Z" fill="#3F3F3F"/>
<path d="M36.259 12.2056C37.017 11.3487 37.5356 10.183 37.3916 9C36.2946 9.0439 34.9227 9.68596 34.1326 10.524C33.4336 11.2625 32.8093 12.4729 32.9706 13.6112C34.2029 13.6943 35.4681 13.0491 36.259 12.2056Z" fill="#3F3F3F"/>
<path d="M55.1659 10.9877C55.1659 11.9149 54.8625 12.6128 54.2565 13.0815C53.6953 13.514 52.8977 13.7306 51.8645 13.7306C51.3522 13.7306 50.9139 13.7101 50.5469 13.6692V8.60323C51.0256 8.53233 51.5413 8.49609 52.0983 8.49609C53.0824 8.49609 53.8242 8.69224 54.3244 9.08453C54.8849 9.52803 55.1659 10.1622 55.1659 10.9877ZM54.2161 11.0105C54.2161 10.4095 54.0425 9.94868 53.6953 9.62728C53.348 9.30667 52.8409 9.14598 52.1731 9.14598C51.8894 9.14598 51.6479 9.16331 51.4476 9.19954V13.0508C51.5585 13.0665 51.7614 13.0736 52.0562 13.0736C52.7455 13.0736 53.2776 12.898 53.6523 12.5466C54.0271 12.1953 54.2161 11.6833 54.2161 11.0105Z" fill="#3F3F3F"/>
<path d="M60.2028 11.7971C60.2028 12.3682 60.0248 12.8361 59.669 13.2032C59.296 13.5805 58.8017 13.7688 58.1846 13.7688C57.5898 13.7688 57.1162 13.5884 56.763 13.2261C56.4106 12.8645 56.2344 12.4084 56.2344 11.8585C56.2344 11.2835 56.4157 10.8116 56.7802 10.4453C57.1446 10.0791 57.6345 9.89551 58.2517 9.89551C58.8464 9.89551 59.3243 10.0759 59.6862 10.4375C60.03 10.7888 60.2028 11.2425 60.2028 11.7971ZM59.2685 11.8239C59.2685 11.4812 59.1877 11.1874 59.0269 10.9424C58.8378 10.6462 58.5688 10.4981 58.219 10.4981C57.8571 10.4981 57.5821 10.6462 57.393 10.9424C57.2314 11.1874 57.1515 11.4859 57.1515 11.8389C57.1515 12.1815 57.2323 12.4753 57.393 12.7203C57.5881 13.0165 57.8597 13.1646 58.2104 13.1646C58.5542 13.1646 58.8241 13.0142 59.0183 12.7125C59.1851 12.4627 59.2685 12.1666 59.2685 11.8239Z" fill="#3F3F3F"/>
<path d="M66.9564 9.97168L65.6886 13.6851H64.8635L64.3383 12.0726C64.2051 11.67 64.0968 11.2699 64.0126 10.8728H63.9963C63.918 11.2809 63.8097 11.6803 63.6705 12.0726L63.1127 13.6851H62.2781L61.0859 9.97168H62.0116L62.4698 11.737C62.5806 12.1545 62.6717 12.5523 62.7448 12.9288H62.7611C62.8282 12.6185 62.939 12.223 63.0955 11.7449L63.6705 9.97247H64.4045L64.9555 11.7071C65.0887 12.1301 65.197 12.5373 65.2804 12.9296H65.3053C65.3663 12.5476 65.4583 12.1403 65.5803 11.7071L66.072 9.97247H66.9564V9.97168Z" fill="#3F3F3F"/>
<path d="M71.6218 13.6849H70.7211V11.558C70.7211 10.9026 70.4494 10.5749 69.9045 10.5749C69.6372 10.5749 69.4215 10.6647 69.2539 10.8451C69.088 11.0255 69.0037 11.2382 69.0037 11.4816V13.6841H68.103V11.0326C68.103 10.7065 68.0918 10.3528 68.0703 9.96997H68.8619L68.904 10.5505H68.929C69.0338 10.3701 69.1903 10.2213 69.3957 10.1023C69.6398 9.96366 69.9131 9.89355 70.2122 9.89355C70.5904 9.89355 70.905 10.0054 71.1551 10.2299C71.4662 10.5048 71.6218 10.9152 71.6218 11.4604V13.6849Z" fill="#3F3F3F"/>
<path d="M74.1069 13.6848H73.207V8.26758H74.1069V13.6848Z" fill="#3F3F3F"/>
<path d="M79.4137 11.7971C79.4137 12.3682 79.2358 12.8361 78.8799 13.2032C78.5069 13.5805 78.0118 13.7688 77.3956 13.7688C76.7999 13.7688 76.3263 13.5884 75.9739 13.2261C75.6215 12.8645 75.4453 12.4084 75.4453 11.8585C75.4453 11.2835 75.6267 10.8116 75.9911 10.4453C76.3555 10.0791 76.8455 9.89551 77.4617 9.89551C78.0574 9.89551 78.5344 10.0759 78.8971 10.4375C79.2409 10.7888 79.4137 11.2425 79.4137 11.7971ZM78.4785 11.8239C78.4785 11.4812 78.3978 11.1874 78.237 10.9424C78.0488 10.6462 77.7789 10.4981 77.4299 10.4981C77.0672 10.4981 76.7922 10.6462 76.6039 10.9424C76.4424 11.1874 76.3624 11.4859 76.3624 11.8389C76.3624 12.1815 76.4432 12.4753 76.6039 12.7203C76.7991 13.0165 77.0707 13.1646 77.4213 13.1646C77.7652 13.1646 78.0342 13.0142 78.2284 12.7125C78.396 12.4627 78.4785 12.1666 78.4785 11.8239Z" fill="#3F3F3F"/>
<path d="M83.7716 13.6845H82.9628L82.8958 13.2568H82.8709C82.5941 13.5979 82.1996 13.7688 81.6873 13.7688C81.3048 13.7688 80.9954 13.6562 80.7625 13.4324C80.551 13.2292 80.4453 12.9763 80.4453 12.6762C80.4453 12.2225 80.6516 11.8767 81.0667 11.6372C81.481 11.3977 82.0638 11.2803 82.8141 11.2859V11.2165C82.8141 10.7274 82.5339 10.4832 81.9727 10.4832C81.573 10.4832 81.2206 10.5753 80.9163 10.7581L80.7332 10.2161C81.1097 10.0026 81.5747 9.89551 82.1231 9.89551C83.182 9.89551 83.7132 10.4075 83.7132 11.4316V12.7991C83.7132 13.1701 83.733 13.4655 83.7716 13.6845ZM82.8365 12.4084V11.8357C81.8429 11.8199 81.3461 12.0697 81.3461 12.5841C81.3461 12.7778 81.4028 12.9228 81.5188 13.0197C81.6349 13.1166 81.7827 13.1646 81.9589 13.1646C82.1566 13.1646 82.3414 13.1071 82.5099 12.9929C82.6792 12.8779 82.7832 12.7321 82.8219 12.5533C82.8313 12.5132 82.8365 12.4643 82.8365 12.4084Z" fill="#3F3F3F"/>
<path d="M88.8873 13.6848H88.088L88.0459 13.0885H88.021C87.7657 13.5423 87.3308 13.7691 86.7196 13.7691C86.2314 13.7691 85.8249 13.5935 85.5026 13.2421C85.1803 12.8908 85.0195 12.4347 85.0195 11.8746C85.0195 11.2736 85.194 10.7868 85.5447 10.4149C85.8842 10.0683 86.3002 9.89504 86.7953 9.89504C87.3394 9.89504 87.7201 10.0628 87.9367 10.3992H87.9539V8.26758H88.8555V12.6844C88.8555 13.046 88.8659 13.3792 88.8873 13.6848ZM87.9539 12.1188V11.4997C87.9539 11.3925 87.9453 11.3059 87.929 11.2397C87.8783 11.0412 87.7691 10.8742 87.6032 10.7395C87.4356 10.6048 87.2336 10.537 87.0007 10.537C86.6646 10.537 86.4016 10.6591 86.2082 10.9041C86.0166 11.1491 85.9194 11.4618 85.9194 11.8439C85.9194 12.211 86.0114 12.5087 86.1962 12.738C86.3913 12.9822 86.6543 13.1043 86.9835 13.1043C87.2792 13.1043 87.5156 13.0027 87.6952 12.7986C87.8688 12.6104 87.9539 12.3835 87.9539 12.1188Z" fill="#3F3F3F"/>
<path d="M96.5934 11.7971C96.5934 12.3682 96.4155 12.8361 96.0596 13.2032C95.6866 13.5805 95.1932 13.7688 94.5752 13.7688C93.9813 13.7688 93.5077 13.5884 93.1536 13.2261C92.8012 12.8645 92.625 12.4084 92.625 11.8585C92.625 11.2835 92.8064 10.8116 93.1708 10.4453C93.5352 10.0791 94.0251 9.89551 94.6431 9.89551C95.2371 9.89551 95.7158 10.0759 96.0768 10.4375C96.4206 10.7888 96.5934 11.2425 96.5934 11.7971ZM95.6599 11.8239C95.6599 11.4812 95.5791 11.1874 95.4184 10.9424C95.2285 10.6462 94.9603 10.4981 94.6096 10.4981C94.2486 10.4981 93.9736 10.6462 93.7836 10.9424C93.622 11.1874 93.5421 11.4859 93.5421 11.8389C93.5421 12.1815 93.6229 12.4753 93.7836 12.7203C93.9787 13.0165 94.2503 13.1646 94.601 13.1646C94.9448 13.1646 95.2156 13.0142 95.4098 12.7125C95.5757 12.4627 95.6599 12.1666 95.6599 11.8239Z" fill="#3F3F3F"/>
<path d="M101.433 13.6849H100.534V11.558C100.534 10.9026 100.262 10.5749 99.7162 10.5749C99.4488 10.5749 99.2331 10.6647 99.0664 10.8451C98.8996 11.0255 98.8162 11.2382 98.8162 11.4816V13.6841H97.9146V11.0326C97.9146 10.7065 97.9043 10.3528 97.8828 9.96997H98.6736L98.7157 10.5505H98.7406C98.8463 10.3701 99.0028 10.2213 99.2073 10.1023C99.4523 9.96366 99.7248 9.89355 100.025 9.89355C100.402 9.89355 100.717 10.0054 100.967 10.2299C101.279 10.5048 101.433 10.9152 101.433 11.4604V13.6849Z" fill="#3F3F3F"/>
<path d="M107.499 10.59H106.507V12.394C106.507 12.8524 106.683 13.0817 107.032 13.0817C107.194 13.0817 107.328 13.0691 107.434 13.0431L107.457 13.6693C107.279 13.7308 107.045 13.7615 106.757 13.7615C106.401 13.7615 106.125 13.6622 105.924 13.4637C105.723 13.2652 105.623 12.9312 105.623 12.4625V10.59H105.031V9.97168H105.623V9.29107L106.506 9.04688V9.97089H107.498V10.59H107.499Z" fill="#3F3F3F"/>
<path d="M112.265 13.6848H111.363V11.5737C111.363 10.9081 111.092 10.5749 110.548 10.5749C110.13 10.5749 109.845 10.7679 109.688 11.1538C109.661 11.235 109.646 11.3342 109.646 11.4508V13.6841H108.746V8.26758H109.646V10.5055H109.663C109.947 10.0983 110.353 9.89504 110.88 9.89504C111.253 9.89504 111.562 10.0069 111.807 10.2314C112.112 10.5111 112.265 10.927 112.265 11.4768V13.6848Z" fill="#3F3F3F"/>
<path d="M117.188 11.6524C117.188 11.8005 117.176 11.925 117.155 12.0266H114.453C114.465 12.3937 114.594 12.6733 114.844 12.8671C115.073 13.0404 115.368 13.1271 115.729 13.1271C116.128 13.1271 116.493 13.0688 116.821 12.9514L116.962 13.5249C116.578 13.6777 116.126 13.7541 115.602 13.7541C114.975 13.7541 114.481 13.5847 114.123 13.246C113.764 12.9073 113.586 12.4528 113.586 11.8824C113.586 11.3224 113.752 10.856 114.086 10.4842C114.435 10.0872 114.907 9.88867 115.503 9.88867C116.085 9.88867 116.528 10.0872 116.827 10.4842C117.069 10.7993 117.188 11.1892 117.188 11.6524ZM116.329 11.4389C116.336 11.1939 116.276 10.9828 116.154 10.8048C115.998 10.5756 115.76 10.4606 115.437 10.4606C115.143 10.4606 114.904 10.5724 114.72 10.7969C114.571 10.9757 114.482 11.1892 114.453 11.4389H116.329Z" fill="#3F3F3F"/>
<path d="M59.1137 27.9197H57.1618L56.0926 24.8405H52.376L51.3575 27.9197H49.4571L53.1393 17.4365H55.4135L59.1137 27.9197ZM55.7702 23.5486L54.8033 20.8112C54.701 20.5315 54.5093 19.873 54.2265 18.8363H54.1922C54.0796 19.2822 53.8982 19.9407 53.6489 20.8112L52.6992 23.5486H55.7702Z" fill="#3F3F3F"/>
<path d="M68.5835 24.0478C68.5835 25.3334 68.2044 26.3496 67.4463 27.0956C66.7673 27.7597 65.9241 28.0913 64.9176 28.0913C63.8312 28.0913 63.0508 27.7337 62.5755 27.0184H62.5411V31.0004H60.7086V22.8497C60.7086 22.0415 60.6854 21.212 60.6407 20.3612H62.2523L62.3546 21.5594H62.3889C63.0001 20.6566 63.9275 20.2061 65.1721 20.2061C66.145 20.2061 66.9573 20.5582 67.6071 21.2632C68.2586 21.969 68.5835 22.897 68.5835 24.0478ZM66.7166 24.1093C66.7166 23.3735 66.5361 22.767 66.1734 22.2896C65.7772 21.7918 65.2451 21.5428 64.5781 21.5428C64.126 21.5428 63.7152 21.6815 63.3482 21.9548C62.9803 22.2305 62.7396 22.5905 62.627 23.0364C62.5703 23.2444 62.5419 23.4145 62.5419 23.5484V24.8088C62.5419 25.3586 62.7259 25.8226 63.0937 26.2015C63.4616 26.5804 63.9395 26.7695 64.5274 26.7695C65.2176 26.7695 65.7548 26.5253 66.139 26.0385C66.5241 25.5508 66.7166 24.9081 66.7166 24.1093Z" fill="#3F3F3F"/>
<path d="M78.067 24.0478C78.067 25.3334 77.6879 26.3496 76.929 27.0956C76.2508 27.7597 75.4076 28.0913 74.4011 28.0913C73.3147 28.0913 72.5343 27.7337 72.0598 27.0184H72.0254V31.0004H70.193V22.8497C70.193 22.0415 70.1698 21.212 70.1251 20.3612H71.7367L71.8389 21.5594H71.8733C72.4836 20.6566 73.411 20.2061 74.6564 20.2061C75.6285 20.2061 76.4408 20.5582 77.0923 21.2632C77.7412 21.969 78.067 22.897 78.067 24.0478ZM76.2001 24.1093C76.2001 23.3735 76.0188 22.767 75.656 22.2896C75.2598 21.7918 74.7295 21.5428 74.0616 21.5428C73.6087 21.5428 73.1987 21.6815 72.8308 21.9548C72.4629 22.2305 72.2231 22.5905 72.1105 23.0364C72.0547 23.2444 72.0254 23.4145 72.0254 23.5484V24.8088C72.0254 25.3586 72.2094 25.8226 72.5755 26.2015C72.9434 26.5796 73.4213 26.7695 74.0109 26.7695C74.7011 26.7695 75.2383 26.5253 75.6225 26.0385C76.0076 25.5508 76.2001 24.9081 76.2001 24.1093Z" fill="#3F3F3F"/>
<path d="M88.6743 24.9802C88.6743 25.8719 88.3366 26.5974 87.6584 27.1575C86.9132 27.7695 85.8758 28.0752 84.5427 28.0752C83.3118 28.0752 82.3251 27.8578 81.5782 27.4222L82.0028 26.0223C82.8073 26.4682 83.69 26.6919 84.6518 26.6919C85.342 26.6919 85.8792 26.5486 86.2651 26.2634C86.6493 25.9782 86.841 25.5954 86.841 25.118C86.841 24.6926 86.6828 24.3342 86.3657 24.0436C86.0502 23.7529 85.5234 23.4827 84.7876 23.233C82.7849 22.5484 81.7845 21.5456 81.7845 20.227C81.7845 19.3652 82.1352 18.6586 82.8374 18.1088C83.537 17.5581 84.4705 17.2832 85.6377 17.2832C86.6785 17.2832 87.5432 17.4494 88.2334 17.7811L87.7753 19.1501C87.1307 18.8287 86.4018 18.668 85.5861 18.668C84.9415 18.668 84.4378 18.8138 84.0768 19.1037C83.7717 19.3628 83.6187 19.6787 83.6187 20.0529C83.6187 20.4672 83.7932 20.8099 84.1438 21.0793C84.449 21.3282 85.0034 21.5976 85.8079 21.8883C86.792 22.2515 87.5149 22.676 87.9799 23.1629C88.4431 23.6481 88.6743 24.2555 88.6743 24.9802Z" fill="#3F3F3F"/>
<path d="M94.734 21.6214H92.7141V25.2915C92.7141 26.2249 93.07 26.6913 93.7834 26.6913C94.1109 26.6913 94.3825 26.6653 94.5973 26.6133L94.6481 27.8886C94.2871 28.0123 93.8117 28.0745 93.223 28.0745C92.4993 28.0745 91.9337 27.8721 91.5254 27.468C91.1189 27.0631 90.9143 26.384 90.9143 25.4301V21.6198H89.711V20.3594H90.9143V18.9754L92.7141 18.4775V20.3594H94.734V21.6214Z" fill="#3F3F3F"/>
<path d="M103.848 24.0778C103.848 25.2397 103.485 26.1936 102.762 26.9396C102.003 27.7077 100.995 28.0905 99.7397 28.0905C98.5295 28.0905 97.566 27.7226 96.8474 26.9869C96.1289 26.2511 95.7696 25.3224 95.7696 24.203C95.7696 23.0317 96.1392 22.0722 96.8809 21.3262C97.621 20.5794 98.6197 20.2061 99.8755 20.2061C101.086 20.2061 102.06 20.5739 102.794 21.3105C103.497 22.0249 103.848 22.9474 103.848 24.0778ZM101.947 24.1321C101.947 23.435 101.784 22.8371 101.455 22.3385C101.071 21.7351 100.522 21.4341 99.8102 21.4341C99.0736 21.4341 98.514 21.7358 98.1298 22.3385C97.8006 22.8379 97.6382 23.4452 97.6382 24.1636C97.6382 24.8608 97.8006 25.4587 98.1298 25.9565C98.5261 26.5599 99.0796 26.8608 99.7938 26.8608C100.493 26.8608 101.043 26.5536 101.439 25.9408C101.777 25.4327 101.947 24.8285 101.947 24.1321Z" fill="#3F3F3F"/>
<path d="M109.803 21.8382C109.622 21.8075 109.429 21.7918 109.226 21.7918C108.581 21.7918 108.083 22.0147 107.732 22.4613C107.427 22.8552 107.274 23.3531 107.274 23.9541V27.9204H105.442L105.459 22.7418C105.459 21.8705 105.436 21.0773 105.391 20.362H106.987L107.054 21.8083H107.105C107.298 21.3112 107.603 20.9111 108.021 20.611C108.429 20.3408 108.87 20.2061 109.345 20.2061C109.515 20.2061 109.668 20.2171 109.803 20.2368V21.8382Z" fill="#3F3F3F"/>
<path d="M118.002 23.7827C118.002 24.0836 117.98 24.3373 117.935 24.5444H112.437C112.459 25.2912 112.724 25.8623 113.235 26.2562C113.698 26.6083 114.297 26.7848 115.033 26.7848C115.847 26.7848 116.59 26.6658 117.258 26.4271L117.545 27.593C116.764 27.9049 115.843 28.0601 114.78 28.0601C113.501 28.0601 112.497 27.7151 111.766 27.0258C111.037 26.3365 110.672 25.4109 110.672 24.2498C110.672 23.11 111.011 22.1607 111.691 21.4037C112.403 20.5955 113.365 20.1914 114.575 20.1914C115.764 20.1914 116.664 20.5955 117.275 21.4037C117.759 22.0457 118.002 22.8398 118.002 23.7827ZM116.254 23.3471C116.267 22.8492 116.147 22.4191 115.899 22.056C115.581 21.5888 115.094 21.3557 114.438 21.3557C113.839 21.3557 113.352 21.5833 112.98 22.0402C112.675 22.4034 112.493 22.839 112.437 23.3463H116.254V23.3471Z" fill="#3F3F3F"/>
</svg>
