<svg width="18" height="20" viewBox="0 0 18 20" fill="none" xmlns="http://www.w3.org/2000/svg">
<path d="M15.0341 10.636C15.009 8.10926 17.3227 6.88002 17.4285 6.82279C16.1181 5.09573 14.0871 4.85976 13.3734 4.84094C11.6676 4.67866 10.0129 5.76366 9.144 5.76366C8.2577 5.76366 6.91959 4.85662 5.47741 4.88328C3.62157 4.90915 1.88541 5.88047 0.933206 7.38881C-1.0319 10.4643 0.433691 14.9838 2.31641 17.4697C3.25821 18.6872 4.35871 20.0466 5.79915 19.9988C7.20837 19.9462 7.73477 19.1866 9.43538 19.1866C11.1204 19.1866 11.6147 19.9988 13.0838 19.9682C14.5962 19.9462 15.5484 18.7452 16.4572 17.5168C17.5456 16.1213 17.9827 14.747 18 14.6765C17.9644 14.6655 15.0627 13.6644 15.0341 10.636Z" fill="currentColor"/>
<path d="M12.259 3.20561C13.017 2.34874 13.5356 1.18299 13.3916 0C12.2946 0.0439017 10.9227 0.685964 10.1326 1.52402C9.43365 2.2625 8.80925 3.47293 8.97056 4.61124C10.2029 4.69434 11.4681 4.04914 12.259 3.20561Z" fill="currentColor"/>
</svg>
