<svg width="10" height="6" viewBox="0 0 10 6" fill="none" xmlns="http://www.w3.org/2000/svg">
<path d="M0.494652 0.690242C0.436448 0.748299 0.390269 0.817268 0.358761 0.8932C0.327253 0.969131 0.311035 1.05053 0.311035 1.13274C0.311035 1.21495 0.327253 1.29635 0.358761 1.37228C0.39027 1.44822 0.436448 1.51718 0.494652 1.57524L4.64965 5.73024C4.69591 5.77659 4.75085 5.81337 4.81134 5.83846C4.87183 5.86355 4.93667 5.87646 5.00215 5.87646C5.06764 5.87646 5.13248 5.86355 5.19296 5.83846C5.25345 5.81337 5.30839 5.77659 5.35465 5.73024L9.50965 1.57524C9.75465 1.33024 9.75465 0.935241 9.50965 0.690241C9.26465 0.445241 8.86965 0.445241 8.62465 0.690241L4.99965 4.31024L1.37465 0.685243C1.13465 0.445242 0.734652 0.445241 0.494652 0.690242Z" fill="#4A5660" stroke="#4A5660" stroke-width="0.136842"/>
</svg>
