<svg width="12" height="13" viewBox="0 0 12 13" fill="none" xmlns="http://www.w3.org/2000/svg">
<path d="M10.5053 8.80976C10.5636 8.7517 10.6097 8.68273 10.6412 8.6068C10.6727 8.53087 10.689 8.44947 10.689 8.36726C10.689 8.28505 10.6727 8.20365 10.6412 8.12772C10.6097 8.05178 10.5636 7.98282 10.5053 7.92476L6.35035 3.76976C6.30409 3.72341 6.24915 3.68663 6.18866 3.66154C6.12817 3.63645 6.06333 3.62353 5.99785 3.62353C5.93236 3.62353 5.86752 3.63645 5.80704 3.66154C5.74655 3.68663 5.69161 3.72341 5.64535 3.76976L1.49035 7.92476C1.24535 8.16976 1.24535 8.56476 1.49035 8.80976C1.73535 9.05476 2.13035 9.05476 2.37535 8.80976L6.00035 5.18976L9.62535 8.81476C9.86535 9.05476 10.2653 9.05476 10.5053 8.80976Z" fill="#4A5660" stroke="#4A5660" stroke-width="0.136842"/>
</svg>
