<svg width="8" height="14" viewBox="0 0 8 14" fill="none" xmlns="http://www.w3.org/2000/svg">
<path d="M0.920974 13.0071C0.998384 13.0847 1.09034 13.1463 1.19158 13.1883C1.29283 13.2303 1.40136 13.252 1.51097 13.252C1.62059 13.252 1.72912 13.2303 1.83036 13.1883C1.93161 13.1463 2.02356 13.0847 2.10097 13.0071L7.64097 7.46713C7.70278 7.40545 7.75181 7.3322 7.78526 7.25155C7.81872 7.1709 7.83594 7.08444 7.83594 6.99713C7.83594 6.90982 7.81872 6.82336 7.78526 6.74271C7.75181 6.66207 7.70278 6.58881 7.64097 6.52713L2.10097 0.987131C1.77431 0.660464 1.24764 0.660464 0.920973 0.987131C0.594306 1.3138 0.594306 1.84046 0.920973 2.16713L5.74764 7.00046L0.914308 11.8338C0.594308 12.1538 0.594307 12.6871 0.920974 13.0071Z" fill="#4A5660" stroke="#4A5660" stroke-width="0.182456"/>
</svg>
