<svg width="38" height="38" viewBox="0 0 38 38" fill="none" xmlns="http://www.w3.org/2000/svg">

<g clip-path="url(#clip0_287_1591)">

<path d="M18.9994 0.666992C9.06085 0.666992 0.666016 9.06183 0.666016 19.0003C0.666016 28.9388 9.06085 37.3337 18.9994 37.3337C28.9379 37.3337 37.3327 28.9388 37.3327 19.0003C37.3327 9.06183 28.9379 0.666992 18.9994 0.666992ZM18.9994 9.83366C22.1655 9.83366 24.4994 12.1657 24.4994 15.3337C24.4994 18.5017 22.1655 20.8337 18.9994 20.8337C15.835 20.8337 13.4994 18.5017 13.4994 15.3337C13.4994 12.1657 15.835 9.83366 18.9994 9.83366ZM9.63835 27.749C11.2829 25.329 14.0255 23.7157 17.166 23.7157H20.8327C23.975 23.7157 26.7159 25.329 28.3604 27.749C26.0174 30.257 22.6935 31.8337 18.9994 31.8337C15.3052 31.8337 11.9814 30.257 9.63835 27.749Z" fill="#C2C6CC"/>
</g>

</svg>
