<svg width="28" height="34" viewBox="0 0 28 34" fill="none" xmlns="http://www.w3.org/2000/svg">
<mask id="path-1-inside-1_51_2498" fill="white">
<path d="M10.4766 0C9.59543 0 8.88108 0.736572 8.88108 1.64516C8.88108 2.55375 9.59543 3.29032 10.4766 3.29032V0ZM17.5288 3.29032C18.41 3.29032 19.1243 2.55375 19.1243 1.64516C19.1243 0.736572 18.41 0 17.5288 0V3.29032ZM11.4499 27.9677C11.4499 27.0592 10.7355 26.3226 9.85435 26.3226C8.97317 26.3226 8.25883 27.0592 8.25883 27.9677H11.4499ZM19.7466 27.9677C19.7466 27.0592 19.0322 26.3226 18.1511 26.3226C17.2699 26.3226 16.5555 27.0592 16.5555 27.9677H19.7466ZM14.0027 5.65058L14.0497 4.00614C14.0189 4.0052 13.9882 4.00518 13.9574 4.00608L14.0027 5.65058ZM24.3613 15.3724L25.9508 15.2309C25.9481 15.1991 25.9447 15.1675 25.9402 15.1359L24.3613 15.3724ZM25.6058 21.953L24.0811 22.438C24.133 22.6113 24.2122 22.7747 24.3158 22.9213L25.6058 21.953ZM26.0889 26.1471L27.4757 26.9609C27.5091 26.8999 27.5389 26.837 27.5649 26.7723L26.0889 26.1471ZM23.1436 27.9612V29.6065L23.1638 29.6061L23.1436 27.9612ZM4.85766 27.9612L4.83749 29.6063H4.85766V27.9612ZM1.91232 26.1471L0.436997 26.7736C0.462674 26.8378 0.492287 26.9004 0.525644 26.9609L1.91232 26.1471ZM2.3873 21.9596L3.67995 22.9239C3.78215 22.7785 3.8605 22.6164 3.9119 22.4446L2.3873 21.9596ZM3.63181 15.379L2.05271 15.1434C2.04835 15.1747 2.04484 15.2061 2.0422 15.2375L3.63181 15.379ZM10.4766 3.29032H17.5288V0H10.4766V3.29032ZM8.25883 27.9677C8.25883 31.2598 10.7925 34 14.0027 34V30.7097C12.6306 30.7097 11.4499 29.5217 11.4499 27.9677H8.25883ZM14.0027 34C17.2129 34 19.7466 31.2598 19.7466 27.9677H16.5555C16.5555 29.5217 15.3749 30.7097 14.0027 30.7097V34ZM13.9557 7.29502C18.3766 7.42931 22.1197 10.9032 22.7821 15.6089L25.9402 15.1359C25.0633 8.90842 20.0768 4.18922 14.0497 4.00614L13.9557 7.29502ZM22.7715 15.5139C22.9685 17.8651 23.4074 20.187 24.0811 22.438L27.1303 21.468C26.5237 19.441 26.128 17.3494 25.9508 15.2309L22.7715 15.5139ZM24.3158 22.9213C24.8408 23.6649 24.9576 24.6572 24.6132 25.5219L27.5649 26.7723C28.3277 24.8575 28.0769 22.658 26.8956 20.9848L24.3158 22.9213ZM24.7023 25.3333C24.3634 25.9475 23.7588 26.3079 23.1236 26.3162L23.1638 29.6061C24.9582 29.5829 26.5897 28.5659 27.4757 26.9609L24.7023 25.3333ZM23.1436 26.316H4.85766V29.6063L23.1436 29.6065V26.316ZM4.87781 26.3162C4.24253 26.3079 3.63798 25.9475 3.29898 25.3333L0.525644 26.9609C1.41163 28.5659 3.04304 29.5831 4.83749 29.6063L4.87781 26.3162ZM3.38763 25.5206C3.04312 24.6581 3.158 23.6677 3.67995 22.9239L1.09467 20.9953C-0.0794845 22.6686 -0.325919 24.8634 0.436997 26.7736L3.38763 25.5206ZM3.9119 22.4446C4.58553 20.1936 5.02459 17.8717 5.22142 15.5205L2.0422 15.2375C1.86484 17.356 1.46928 19.4476 0.862703 21.4746L3.9119 22.4446ZM5.21091 15.6146C5.87184 10.9025 9.62149 7.4245 14.048 7.29508L13.9574 4.00608C7.92247 4.18255 2.92742 8.90752 2.05271 15.1434L5.21091 15.6146Z"/>
</mask>
<path d="M10.4766 0C9.59543 0 8.88108 0.736572 8.88108 1.64516C8.88108 2.55375 9.59543 3.29032 10.4766 3.29032V0ZM17.5288 3.29032C18.41 3.29032 19.1243 2.55375 19.1243 1.64516C19.1243 0.736572 18.41 0 17.5288 0V3.29032ZM11.4499 27.9677C11.4499 27.0592 10.7355 26.3226 9.85435 26.3226C8.97317 26.3226 8.25883 27.0592 8.25883 27.9677H11.4499ZM19.7466 27.9677C19.7466 27.0592 19.0322 26.3226 18.1511 26.3226C17.2699 26.3226 16.5555 27.0592 16.5555 27.9677H19.7466ZM14.0027 5.65058L14.0497 4.00614C14.0189 4.0052 13.9882 4.00518 13.9574 4.00608L14.0027 5.65058ZM24.3613 15.3724L25.9508 15.2309C25.9481 15.1991 25.9447 15.1675 25.9402 15.1359L24.3613 15.3724ZM25.6058 21.953L24.0811 22.438C24.133 22.6113 24.2122 22.7747 24.3158 22.9213L25.6058 21.953ZM26.0889 26.1471L27.4757 26.9609C27.5091 26.8999 27.5389 26.837 27.5649 26.7723L26.0889 26.1471ZM23.1436 27.9612V29.6065L23.1638 29.6061L23.1436 27.9612ZM4.85766 27.9612L4.83749 29.6063H4.85766V27.9612ZM1.91232 26.1471L0.436997 26.7736C0.462674 26.8378 0.492287 26.9004 0.525644 26.9609L1.91232 26.1471ZM2.3873 21.9596L3.67995 22.9239C3.78215 22.7785 3.8605 22.6164 3.9119 22.4446L2.3873 21.9596ZM3.63181 15.379L2.05271 15.1434C2.04835 15.1747 2.04484 15.2061 2.0422 15.2375L3.63181 15.379ZM10.4766 3.29032H17.5288V0H10.4766V3.29032ZM8.25883 27.9677C8.25883 31.2598 10.7925 34 14.0027 34V30.7097C12.6306 30.7097 11.4499 29.5217 11.4499 27.9677H8.25883ZM14.0027 34C17.2129 34 19.7466 31.2598 19.7466 27.9677H16.5555C16.5555 29.5217 15.3749 30.7097 14.0027 30.7097V34ZM13.9557 7.29502C18.3766 7.42931 22.1197 10.9032 22.7821 15.6089L25.9402 15.1359C25.0633 8.90842 20.0768 4.18922 14.0497 4.00614L13.9557 7.29502ZM22.7715 15.5139C22.9685 17.8651 23.4074 20.187 24.0811 22.438L27.1303 21.468C26.5237 19.441 26.128 17.3494 25.9508 15.2309L22.7715 15.5139ZM24.3158 22.9213C24.8408 23.6649 24.9576 24.6572 24.6132 25.5219L27.5649 26.7723C28.3277 24.8575 28.0769 22.658 26.8956 20.9848L24.3158 22.9213ZM24.7023 25.3333C24.3634 25.9475 23.7588 26.3079 23.1236 26.3162L23.1638 29.6061C24.9582 29.5829 26.5897 28.5659 27.4757 26.9609L24.7023 25.3333ZM23.1436 26.316H4.85766V29.6063L23.1436 29.6065V26.316ZM4.87781 26.3162C4.24253 26.3079 3.63798 25.9475 3.29898 25.3333L0.525644 26.9609C1.41163 28.5659 3.04304 29.5831 4.83749 29.6063L4.87781 26.3162ZM3.38763 25.5206C3.04312 24.6581 3.158 23.6677 3.67995 22.9239L1.09467 20.9953C-0.0794845 22.6686 -0.325919 24.8634 0.436997 26.7736L3.38763 25.5206ZM3.9119 22.4446C4.58553 20.1936 5.02459 17.8717 5.22142 15.5205L2.0422 15.2375C1.86484 17.356 1.46928 19.4476 0.862703 21.4746L3.9119 22.4446ZM5.21091 15.6146C5.87184 10.9025 9.62149 7.4245 14.048 7.29508L13.9574 4.00608C7.92247 4.18255 2.92742 8.90752 2.05271 15.1434L5.21091 15.6146Z" fill="#389CFB"/>
<path d="M12.2266 3.29032V0H8.7266V3.29032H12.2266ZM15.7788 0V3.29032H19.2788V0H15.7788ZM8.25883 29.7177H11.4499V26.2177H8.25883V29.7177ZM16.5555 29.7177H19.7466V26.2177H16.5555V29.7177ZM15.7527 34V30.7097H12.2527V34H15.7527ZM14.0027 5.65058L10.504 5.74699L17.5013 5.7506L14.0027 5.65058ZM13.9574 4.00608L13.8554 0.507564L13.8551 0.507573L13.9574 4.00608ZM24.3613 15.3724L23.8429 11.911L24.6716 18.8586L24.3613 15.3724ZM25.9508 15.2309L29.4387 14.9392L29.4377 14.9277L25.9508 15.2309ZM25.6058 21.953L27.7068 24.7523L24.5448 18.6177L25.6058 21.953ZM24.0811 22.438L20.7281 23.4416L20.7283 23.4423L24.0811 22.438ZM26.0889 26.1471L27.454 22.9243L24.3175 29.1657L26.0889 26.1471ZM27.4757 26.9609L30.5399 28.6524L30.5455 28.6422L27.4757 26.9609ZM27.5649 26.7723L30.8133 28.0752L30.8163 28.0677L27.5649 26.7723ZM23.1436 27.9612L26.6433 27.9182L19.6436 27.9612H23.1436ZM23.1436 29.6065L23.1435 33.1065H23.1813L23.219 33.1057L23.1436 29.6065ZM4.85766 27.9612H8.35766L1.35792 27.9183L4.85766 27.9612ZM4.83749 29.6063L4.79215 33.106L4.81482 33.1063H4.83749V29.6063ZM1.91232 26.1471L3.68384 29.1657L0.54432 22.9255L1.91232 26.1471ZM0.436997 26.7736L-2.81334 28.0718L-2.81321 28.0721L0.436997 26.7736ZM0.525644 26.9609L-2.53985 28.6499L-2.53851 28.6523L0.525644 26.9609ZM2.3873 21.9596L3.44831 18.6243L0.294539 24.765L2.3873 21.9596ZM3.63181 15.379L3.32152 18.8652L4.14826 11.9173L3.63181 15.379ZM2.05271 15.1434L-1.41336 14.6572L-1.41395 14.6614L2.05271 15.1434ZM2.0422 15.2375L-1.44549 14.9442L-1.4456 14.9455L2.0422 15.2375ZM13.9557 7.29502L10.4571 7.19499L10.3573 10.6873L13.8494 10.7934L13.9557 7.29502ZM22.7821 15.6089L19.3163 16.0968L19.8085 19.5932L23.3005 19.0703L22.7821 15.6089ZM22.7715 15.5139L22.4612 12.0277L18.993 12.3363L19.2837 15.8061L22.7715 15.5139ZM27.1303 21.468L28.1913 24.8033L31.4695 23.7605L30.4834 20.4648L27.1303 21.468ZM24.6132 25.5219L21.3616 24.2268L20.0942 27.4088L23.248 28.7447L24.6132 25.5219ZM26.8956 20.9848L29.7548 18.9662L27.6765 16.0224L24.7945 18.1856L26.8956 20.9848ZM24.7023 25.3333L26.4738 22.3147L23.3741 20.4956L21.6378 23.6424L24.7023 25.3333ZM23.1236 26.3162L23.0777 22.8165L19.5811 22.8624L19.6238 26.359L23.1236 26.3162ZM23.1436 26.316H26.6436V22.816H23.1436V26.316ZM4.85766 26.316V22.816H1.35766V26.316H4.85766ZM4.87781 26.3162L8.37754 26.3591L8.42039 22.8624L4.92373 22.8165L4.87781 26.3162ZM3.29898 25.3333L6.36323 23.642L4.62674 20.4958L1.52746 22.3147L3.29898 25.3333ZM3.38763 25.5206L4.75564 28.7422L7.90851 27.4034L6.63794 24.2224L3.38763 25.5206ZM1.09467 20.9953L3.18745 18.1899L0.299369 16.0355L-1.77031 18.9849L1.09467 20.9953ZM5.22142 15.5205L8.70922 15.8124L8.99965 12.3429L5.53171 12.0342L5.22142 15.5205ZM0.862703 21.4746L-2.49039 20.4712L-3.47662 23.7671L-0.1983 24.8099L0.862703 21.4746ZM5.21091 15.6146L4.69446 19.0762L8.18655 19.5972L8.67698 16.1007L5.21091 15.6146ZM14.048 7.29508L14.1503 10.7936L17.6429 10.6915L17.5467 7.19868L14.048 7.29508ZM10.4766 -3.5C7.56213 -3.5 5.38108 -1.09458 5.38108 1.64516H12.3811C12.3811 2.56772 11.6287 3.5 10.4766 3.5V-3.5ZM5.38108 1.64516C5.38108 4.3849 7.56213 6.79032 10.4766 6.79032V-0.209677C11.6287 -0.209677 12.3811 0.722603 12.3811 1.64516H5.38108ZM17.5288 6.79032C20.4432 6.79032 22.6243 4.38492 22.6243 1.64516H15.6243C15.6243 0.722583 16.3767 -0.209677 17.5288 -0.209677V6.79032ZM22.6243 1.64516C22.6243 -1.0946 20.4432 -3.5 17.5288 -3.5V3.5C16.3767 3.5 15.6243 2.56774 15.6243 1.64516H22.6243ZM14.9499 27.9677C14.9499 25.228 12.7688 22.8226 9.85435 22.8226V29.8226C8.70222 29.8226 7.94987 28.8903 7.94987 27.9677H14.9499ZM9.85435 22.8226C6.93986 22.8226 4.75883 25.228 4.75883 27.9677H11.7588C11.7588 28.8903 11.0065 29.8226 9.85435 29.8226V22.8226ZM23.2466 27.9677C23.2466 25.228 21.0655 22.8226 18.1511 22.8226V29.8226C16.9989 29.8226 16.2466 28.8903 16.2466 27.9677H23.2466ZM18.1511 22.8226C15.2366 22.8226 13.0555 25.228 13.0555 27.9677H20.0555C20.0555 28.8903 19.3032 29.8226 18.1511 29.8226V22.8226ZM17.5013 5.7506L17.5483 4.10616L10.5512 3.90612L10.5041 5.55056L17.5013 5.7506ZM14.1567 0.507779C14.0562 0.504707 13.9559 0.504634 13.8554 0.507564L14.0594 7.50459C14.0206 7.50572 13.9815 7.50569 13.9428 7.50451L14.1567 0.507779ZM10.4587 4.10248L10.504 5.74699L17.5014 5.55418L17.4561 3.90967L10.4587 4.10248ZM24.6716 18.8586L26.2611 18.7171L25.6405 11.7447L24.051 11.8862L24.6716 18.8586ZM29.4377 14.9277C29.4309 14.8491 29.4209 14.7534 29.4057 14.6458L22.4747 15.6261C22.4684 15.5817 22.4653 15.549 22.464 15.5341L29.4377 14.9277ZM25.4218 11.6745L23.8429 11.911L24.8797 18.8338L26.4586 18.5973L25.4218 11.6745ZM24.5448 18.6177L23.0202 19.1027L25.142 25.7734L26.6667 25.2884L24.5448 18.6177ZM20.7283 23.4423C20.887 23.9723 21.1314 24.48 21.4579 24.9419L27.1736 20.9007C27.2929 21.0695 27.379 21.2503 27.4339 21.4337L20.7283 23.4423ZM26.4167 25.7205L27.7068 24.7523L23.5048 19.1538L22.2148 20.122L26.4167 25.7205ZM24.3175 29.1657L25.7044 29.9796L29.2471 23.9423L27.8603 23.1284L24.3175 29.1657ZM30.5455 28.6422C30.6453 28.4599 30.7349 28.2707 30.8133 28.0752L24.3164 25.4694C24.3429 25.4033 24.373 25.3399 24.406 25.2796L30.5455 28.6422ZM28.9299 23.5494L27.454 22.9243L24.7239 29.3699L26.1998 29.9951L28.9299 23.5494ZM19.6436 27.9612V29.6065H26.6436V27.9612H19.6436ZM23.219 33.1057L23.2392 33.1053L23.0884 26.1069L23.0682 26.1074L23.219 33.1057ZM26.6635 29.5631L26.6433 27.9182L19.6438 28.0042L19.664 29.6491L26.6635 29.5631ZM1.35792 27.9183L1.33776 29.5634L8.33723 29.6492L8.3574 28.0041L1.35792 27.9183ZM4.83749 33.1063H4.85766V26.1063H4.83749V33.1063ZM8.35766 29.6063V27.9612H1.35766V29.6063H8.35766ZM0.54432 22.9255L-0.931007 23.552L1.805 29.9952L3.28033 29.3687L0.54432 22.9255ZM-2.81321 28.0721C-2.73361 28.2713 -2.64217 28.4642 -2.53985 28.6499L3.59114 25.2719C3.62674 25.3365 3.65896 25.4044 3.68721 25.4751L-2.81321 28.0721ZM2.29715 29.9795L3.68384 29.1657L0.140813 23.1285L-1.24587 23.9423L2.29715 29.9795ZM0.294539 24.765L1.58719 25.7293L5.77271 20.1185L4.48006 19.1542L0.294539 24.765ZM6.5436 24.9362C6.86499 24.4789 7.10717 23.9754 7.26498 23.448L0.558812 21.4412C0.613828 21.2574 0.699311 21.078 0.816308 20.9115L6.5436 24.9362ZM4.97291 19.1093L3.44831 18.6243L1.32629 25.2949L2.85089 25.7799L4.97291 19.1093ZM4.14826 11.9173L2.56916 11.6817L1.53626 18.6051L3.11536 18.8407L4.14826 11.9173ZM-1.41395 14.6614C-1.42686 14.7543 -1.43745 14.8486 -1.44549 14.9442L5.52989 15.5308C5.52712 15.5636 5.52356 15.5952 5.51936 15.6254L-1.41395 14.6614ZM1.73191 18.7237L3.32152 18.8652L3.9421 11.8927L2.35249 11.7513L1.73191 18.7237ZM10.4766 6.79032H17.5288V-0.209677H10.4766V6.79032ZM17.5288 -3.5H10.4766V3.5H17.5288V-3.5ZM4.75883 27.9677C4.75883 32.9986 8.67083 37.5 14.0027 37.5V30.5C12.9142 30.5 11.7588 29.5211 11.7588 27.9677H4.75883ZM14.0027 27.2097C14.7305 27.2097 14.9499 27.7599 14.9499 27.9677H7.94987C7.94987 31.2834 10.5306 34.2097 14.0027 34.2097V27.2097ZM14.0027 37.5C19.3346 37.5 23.2466 32.9986 23.2466 27.9677H16.2466C16.2466 29.5211 15.0912 30.5 14.0027 30.5V37.5ZM13.0555 27.9677C13.0555 27.7599 13.2749 27.2097 14.0027 27.2097V34.2097C17.4748 34.2097 20.0555 31.2834 20.0555 27.9677H13.0555ZM13.8494 10.7934C16.4305 10.8718 18.8719 12.9399 19.3163 16.0968L26.248 15.1209C25.3675 8.86643 20.3226 3.98681 14.062 3.79663L13.8494 10.7934ZM23.3005 19.0703L26.4586 18.5973L25.4219 11.6745L22.2638 12.1474L23.3005 19.0703ZM29.406 14.6479C28.3116 6.87597 22.0269 0.74684 14.156 0.507757L13.9435 7.50453C18.1266 7.63159 21.815 10.9409 22.4744 15.6239L29.406 14.6479ZM10.5512 3.90612L10.4571 7.19499L17.4543 7.39504L17.5483 4.10617L10.5512 3.90612ZM19.2837 15.8061C19.5008 18.3971 19.9845 20.9574 20.7281 23.4416L27.4341 21.4345C26.8302 19.4166 26.4362 17.3332 26.2593 15.2217L19.2837 15.8061ZM25.1421 25.7733L28.1913 24.8033L26.0692 18.1327L23.0201 19.1027L25.1421 25.7733ZM30.4834 20.4648C29.9465 18.6704 29.5958 16.8173 29.4387 14.9392L22.463 15.5226C22.6603 17.8815 23.101 20.2116 23.7771 22.4713L30.4834 20.4648ZM25.6406 11.7447L22.4612 12.0277L23.0818 19.0001L26.2611 18.7171L25.6406 11.7447ZM21.4566 24.94C21.367 24.8131 21.3261 24.6861 21.3135 24.577C21.3009 24.4674 21.3135 24.3477 21.3616 24.2268L27.8647 26.8171C28.6411 24.8678 28.3923 22.6267 27.1749 20.9025L21.4566 24.94ZM23.248 28.7447L26.1997 29.995L28.93 23.5495L25.9783 22.2991L23.248 28.7447ZM30.8163 28.0677C32.0113 25.0684 31.6285 21.6201 29.7548 18.9662L24.0364 23.0034C24.5253 23.696 24.6442 24.6466 24.3134 25.4768L30.8163 28.0677ZM24.7945 18.1856L22.2147 20.1221L26.4168 25.7204L28.9967 23.784L24.7945 18.1856ZM21.6378 23.6424C21.876 23.2108 22.3921 22.8255 23.0777 22.8165L23.1695 29.8159C25.1255 29.7903 26.8508 28.6841 27.7668 27.0242L21.6378 23.6424ZM19.6238 26.359L19.664 29.6489L26.6635 29.5633L26.6233 26.2735L19.6238 26.359ZM23.2091 33.1058C26.3287 33.0654 29.0788 31.299 30.5398 28.6524L24.4116 25.2694C24.1006 25.8328 23.5877 26.1003 23.1184 26.1064L23.2091 33.1058ZM29.2472 23.9423L26.4738 22.3147L22.9308 28.3519L25.7043 29.9795L29.2472 23.9423ZM23.1436 22.816H4.85766V29.816H23.1436V22.816ZM1.35766 26.316V29.6063H8.35766V26.316H1.35766ZM4.85762 33.1063L23.1435 33.1065L23.1436 26.1065L4.8577 26.1063L4.85762 33.1063ZM26.6436 29.6065V26.316H19.6436V29.6065H26.6436ZM4.92373 22.8165C5.60934 22.8255 6.12528 23.2109 6.36323 23.642L0.234736 27.0246C1.15068 28.6841 2.87573 29.7903 4.83189 29.8159L4.92373 22.8165ZM1.52746 22.3147L-1.24588 23.9423L2.29717 29.9795L5.07051 28.3519L1.52746 22.3147ZM-2.53851 28.6523C-1.07768 31.2987 1.67225 33.0656 4.79215 33.106L4.88284 26.1066C4.41382 26.1005 3.90094 25.8331 3.5898 25.2695L-2.53851 28.6523ZM8.33723 29.6492L8.37754 26.3591L1.37807 26.2733L1.33776 29.5634L8.33723 29.6492ZM6.63794 24.2224C6.68629 24.3434 6.69895 24.4631 6.68654 24.5725C6.67418 24.6814 6.63365 24.8079 6.54497 24.9343L0.814934 20.9135C-0.394469 22.637 -0.639732 24.8735 0.137318 26.8189L6.63794 24.2224ZM5.77273 20.1185L3.18745 18.1899L-0.998102 23.8007L1.58718 25.7293L5.77273 20.1185ZM-1.77031 18.9849C-3.63236 21.6384 -4.0085 25.0794 -2.81334 28.0718L3.68733 25.4754C3.35667 24.6475 3.47339 23.6987 3.95966 23.0058L-1.77031 18.9849ZM1.80501 29.9952L4.75564 28.7422L2.01962 22.299L-0.931015 23.552L1.80501 29.9952ZM7.26498 23.448C8.00831 20.9641 8.4923 18.4038 8.70922 15.8124L1.73362 15.2285C1.55689 17.3397 1.16275 19.4231 0.558819 21.4412L7.26498 23.448ZM5.53171 12.0342L2.35249 11.7513L1.73191 18.7237L4.91113 19.0067L5.53171 12.0342ZM-1.4456 14.9455C-1.60286 16.824 -1.95351 18.6771 -2.49039 20.4712L4.2158 22.478C4.89206 20.218 5.33254 17.888 5.53 15.5295L-1.4456 14.9455ZM-0.1983 24.8099L2.85089 25.7799L4.9729 19.1093L1.92371 18.1393L-0.1983 24.8099ZM8.67698 16.1007C9.1204 12.9394 11.5662 10.8691 14.1503 10.7936L13.9457 3.79658C7.67682 3.97987 2.62327 8.86562 1.74484 15.1284L8.67698 16.1007ZM17.5467 7.19868L17.4561 3.90967L10.4587 4.10248L10.5494 7.39149L17.5467 7.19868ZM13.8551 0.507573C5.97362 0.73804 -0.321747 6.87501 -1.41336 14.6572L5.51878 15.6296C6.17658 10.94 9.87132 7.62706 14.0597 7.50458L13.8551 0.507573ZM1.53626 18.6051L4.69446 19.0762L5.72736 12.1529L2.56916 11.6817L1.53626 18.6051Z" fill="#389CFB" mask="url(#path-1-inside-1_51_2498)"/>
</svg>
