<svg width="16" height="16" viewBox="0 0 16 16" fill="none" xmlns="http://www.w3.org/2000/svg">
<path d="M12.7806 4.42668C12.494 2.98001 11.4206 2.34668 9.92729 2.34668H4.07396C2.31396 2.34668 1.14062 3.22668 1.14062 5.28001V8.71335C1.14062 10.1933 1.74729 11.06 2.74729 11.4333C2.89396 11.4867 3.05396 11.5333 3.22062 11.56C3.48729 11.62 3.77396 11.6467 4.07396 11.6467H9.93396C11.694 11.6467 12.8673 10.7667 12.8673 8.71335V5.28001C12.8673 4.96668 12.8406 4.68668 12.7806 4.42668ZM3.68729 8.00001C3.68729 8.27335 3.46063 8.50001 3.18729 8.50001C2.91396 8.50001 2.68729 8.27335 2.68729 8.00001V6.00001C2.68729 5.72668 2.91396 5.50001 3.18729 5.50001C3.46063 5.50001 3.68729 5.72668 3.68729 6.00001V8.00001ZM7.00063 8.76001C6.02729 8.76001 5.24063 7.97335 5.24063 7.00001C5.24063 6.02668 6.02729 5.24001 7.00063 5.24001C7.97396 5.24001 8.76063 6.02668 8.76063 7.00001C8.76063 7.97335 7.97396 8.76001 7.00063 8.76001ZM11.3073 8.00001C11.3073 8.27335 11.0806 8.50001 10.8073 8.50001C10.534 8.50001 10.3073 8.27335 10.3073 8.00001V6.00001C10.3073 5.72668 10.534 5.50001 10.8073 5.50001C11.0806 5.50001 11.3073 5.72668 11.3073 6.00001V8.00001Z" fill="#29384E"/>
<path d="M14.8665 7.27986V10.7132C14.8665 12.7665 13.6932 13.6532 11.9265 13.6532H6.07318C5.57318 13.6532 5.12651 13.5799 4.73985 13.4332C4.42651 13.3199 4.15318 13.1532 3.93318 12.9399C3.81318 12.8265 3.90651 12.6465 4.07318 12.6465H9.92651C12.3932 12.6465 13.8598 11.1799 13.8598 8.71986V5.27986C13.8598 5.11986 14.0398 5.01986 14.1532 5.13986C14.6065 5.61986 14.8665 6.31986 14.8665 7.27986Z" fill="#29384E"/>
</svg>
