<svg width="18" height="18" viewBox="0 0 18 18" fill="none" xmlns="http://www.w3.org/2000/svg">
<g clip-path="url(#clip0_1143_10681)">
<path d="M9 0C8.20462 0.000893291 7.44208 0.317251 6.87967 0.879666C6.31725 1.44208 6.00089 2.20462 6 3V8.25C6.00067 8.84653 6.23794 9.41844 6.65975 9.84025C7.08156 10.2621 7.65347 10.4993 8.25 10.5H9.75C10.3465 10.4993 10.9184 10.2621 11.3403 9.84025C11.7621 9.41844 11.9993 8.84653 12 8.25V3C11.9991 2.20462 11.6827 1.44208 11.1203 0.879666C10.5579 0.317251 9.79538 0.000893291 9 0Z" fill="#FF4A73"/>
<path d="M12.75 3.83203V8.25075C12.7491 9.04613 12.4328 9.80867 11.8703 10.3711C11.3079 10.9335 10.5454 11.2499 9.75 11.2507H8.25C7.45463 11.2499 6.69208 10.9335 6.12967 10.3711C5.56725 9.80867 5.25089 9.04613 5.25 8.25075V3.85631C4.28696 4.85684 3.74929 6.19174 3.75 7.58044V18.0007H14.25V7.50075C14.2506 6.12843 13.7119 4.81085 12.75 3.83203ZM11.25 16.5007H6.75V15.7507H11.25V16.5007ZM11.25 15.0007H6.75V14.2507H11.25V15.0007Z" fill="#FFBB98"/>
<path d="M3.375 4.5C3.07673 4.49968 2.79077 4.38105 2.57986 4.17014C2.36895 3.95923 2.25032 3.67327 2.25 3.375C2.25 3.27554 2.21049 3.18016 2.14016 3.10984C2.06984 3.03951 1.97446 3 1.875 3C1.77554 3 1.68016 3.03951 1.60984 3.10984C1.53951 3.18016 1.5 3.27554 1.5 3.375C1.49968 3.67327 1.38105 3.95923 1.17014 4.17014C0.95923 4.38105 0.67327 4.49968 0.375 4.5C0.275544 4.5 0.180161 4.53951 0.109835 4.60984C0.0395088 4.68016 0 4.77554 0 4.875C0 4.97446 0.0395088 5.06984 0.109835 5.14016C0.180161 5.21049 0.275544 5.25 0.375 5.25C0.67327 5.25032 0.95923 5.36895 1.17014 5.57986C1.38105 5.79077 1.49968 6.07673 1.5 6.375C1.5 6.47446 1.53951 6.56984 1.60984 6.64017C1.68016 6.71049 1.77554 6.75 1.875 6.75C1.97446 6.75 2.06984 6.71049 2.14016 6.64017C2.21049 6.56984 2.25 6.47446 2.25 6.375C2.25032 6.07673 2.36895 5.79077 2.57986 5.57986C2.79077 5.36895 3.07673 5.25032 3.375 5.25C3.47446 5.25 3.56984 5.21049 3.64016 5.14016C3.71049 5.06984 3.75 4.97446 3.75 4.875C3.75 4.77554 3.71049 4.68016 3.64016 4.60984C3.56984 4.53951 3.47446 4.5 3.375 4.5Z" fill="#F9D335"/>
<path d="M17.1562 1.5C16.858 1.49968 16.572 1.38105 16.3611 1.17014C16.1502 0.95923 16.0316 0.67327 16.0312 0.375C16.0312 0.275544 15.9917 0.180161 15.9214 0.109835C15.8511 0.0395088 15.7557 0 15.6562 0C15.5568 0 15.4614 0.0395088 15.3911 0.109835C15.3208 0.180161 15.2812 0.275544 15.2812 0.375C15.2809 0.67327 15.1623 0.95923 14.9514 1.17014C14.7405 1.38105 14.4545 1.49968 14.1562 1.5C14.0568 1.5 13.9614 1.53951 13.8911 1.60984C13.8208 1.68016 13.7812 1.77554 13.7812 1.875C13.7812 1.97446 13.8208 2.06984 13.8911 2.14016C13.9614 2.21049 14.0568 2.25 14.1562 2.25C14.4545 2.25032 14.7405 2.36895 14.9514 2.57986C15.1623 2.79077 15.2809 3.07673 15.2812 3.375C15.2812 3.47446 15.3208 3.56984 15.3911 3.64016C15.4614 3.71049 15.5568 3.75 15.6562 3.75C15.7557 3.75 15.8511 3.71049 15.9214 3.64016C15.9917 3.56984 16.0312 3.47446 16.0312 3.375C16.0316 3.07673 16.1502 2.79077 16.3611 2.57986C16.572 2.36895 16.858 2.25032 17.1562 2.25C17.2557 2.25 17.3511 2.21049 17.4214 2.14016C17.4917 2.06984 17.5312 1.97446 17.5312 1.875C17.5312 1.77554 17.4917 1.68016 17.4214 1.60984C17.3511 1.53951 17.2557 1.5 17.1562 1.5Z" fill="#F9D335"/>
</g>
<defs>
<clipPath id="clip0_1143_10681">
<rect width="18" height="18" fill="white"/>
</clipPath>
</defs>
</svg>
