<svg width="18" height="17" viewBox="0 0 18 17" fill="none" xmlns="http://www.w3.org/2000/svg">
<path d="M3.20208 2.94922C4.8349 1.31641 6.78281 0.5 9.04583 0.5C11.3089 0.5 13.2424 1.31641 14.8466 2.94922C16.4794 4.55339 17.2958 6.48698 17.2958 8.75C17.2958 11.013 16.4794 12.9609 14.8466 14.5938C13.2424 16.1979 11.3089 17 9.04583 17C6.78281 17 4.8349 16.1979 3.20208 14.5938C1.59792 12.9609 0.795834 11.013 0.795834 8.75C0.795834 6.48698 1.59792 4.55339 3.20208 2.94922ZM13.9013 3.89453C12.5549 2.54818 10.9365 1.875 9.04583 1.875C7.15521 1.875 5.53672 2.54818 4.19036 3.89453C2.84401 5.24089 2.17083 6.85938 2.17083 8.75C2.17083 10.6406 2.84401 12.2591 4.19036 13.6055C5.53672 14.9518 7.15521 15.625 9.04583 15.625C10.9365 15.625 12.5549 14.9518 13.9013 13.6055C15.2477 12.2591 15.9208 10.6406 15.9208 8.75C15.9208 6.85938 15.2477 5.24089 13.9013 3.89453ZM8.53021 2.77734C8.67344 2.63411 8.84531 2.5625 9.04583 2.5625C9.24635 2.5625 9.40391 2.63411 9.51849 2.77734C9.66172 2.89193 9.73333 3.04948 9.73333 3.25C9.73333 3.45052 9.66172 3.6224 9.51849 3.76562C9.40391 3.88021 9.24635 3.9375 9.04583 3.9375C8.84531 3.9375 8.67344 3.88021 8.53021 3.76562C8.41563 3.6224 8.35833 3.45052 8.35833 3.25C8.35833 3.04948 8.41563 2.89193 8.53021 2.77734ZM4.66302 4.41016C4.80625 4.26693 4.9638 4.19531 5.13568 4.19531C5.3362 4.19531 5.50807 4.26693 5.6513 4.41016C5.79453 4.52474 5.86615 4.68229 5.86615 4.88281C5.86615 5.05469 5.79453 5.21224 5.6513 5.35547C5.50807 5.4987 5.3362 5.57031 5.13568 5.57031C4.9638 5.57031 4.80625 5.4987 4.66302 5.35547C4.54844 5.21224 4.49115 5.05469 4.49115 4.88281C4.49115 4.68229 4.54844 4.52474 4.66302 4.41016ZM12.4404 4.36719L13.4286 5.35547L10.3779 8.40625C10.4065 8.52083 10.4208 8.63542 10.4208 8.75C10.4208 9.1224 10.2776 9.45182 9.99115 9.73828C9.73333 9.99609 9.41823 10.125 9.04583 10.125C8.67344 10.125 8.34401 9.99609 8.05755 9.73828C7.79974 9.45182 7.67083 9.1224 7.67083 8.75C7.67083 8.3776 7.79974 8.0625 8.05755 7.80469C8.34401 7.51823 8.67344 7.375 9.04583 7.375C9.16042 7.375 9.275 7.38932 9.38958 7.41797L12.4404 4.36719ZM3.03021 8.27734C3.17344 8.13411 3.34531 8.0625 3.54583 8.0625C3.74635 8.0625 3.90391 8.13411 4.01849 8.27734C4.16172 8.39193 4.23333 8.54948 4.23333 8.75C4.23333 8.95052 4.16172 9.1224 4.01849 9.26562C3.90391 9.38021 3.74635 9.4375 3.54583 9.4375C3.34531 9.4375 3.17344 9.38021 3.03021 9.26562C2.91563 9.1224 2.85833 8.95052 2.85833 8.75C2.85833 8.54948 2.91563 8.39193 3.03021 8.27734ZM14.0302 8.27734C14.1734 8.13411 14.3453 8.0625 14.5458 8.0625C14.7464 8.0625 14.9039 8.13411 15.0185 8.27734C15.1617 8.39193 15.2333 8.54948 15.2333 8.75C15.2333 8.95052 15.1617 9.1224 15.0185 9.26562C14.9039 9.38021 14.7464 9.4375 14.5458 9.4375C14.3453 9.4375 14.1734 9.38021 14.0302 9.26562C13.9156 9.1224 13.8583 8.95052 13.8583 8.75C13.8583 8.54948 13.9156 8.39193 14.0302 8.27734ZM4.66302 12.1445C4.80625 12.0013 4.9638 11.9297 5.13568 11.9297C5.3362 11.9297 5.50807 12.0013 5.6513 12.1445C5.79453 12.2878 5.86615 12.4596 5.86615 12.6602C5.86615 12.832 5.79453 12.9896 5.6513 13.1328C5.50807 13.2474 5.3362 13.3047 5.13568 13.3047C4.9638 13.3047 4.80625 13.2474 4.66302 13.1328C4.54844 12.9896 4.49115 12.832 4.49115 12.6602C4.49115 12.4596 4.54844 12.2878 4.66302 12.1445ZM12.4404 12.1445C12.5836 12.0013 12.7411 11.9297 12.913 11.9297C13.1135 11.9297 13.2711 12.0013 13.3857 12.1445C13.5289 12.2878 13.6005 12.4596 13.6005 12.6602C13.6005 12.832 13.5289 12.9896 13.3857 13.1328C13.2711 13.2474 13.1135 13.3047 12.913 13.3047C12.7411 13.3047 12.5836 13.2474 12.4404 13.1328C12.2971 12.9896 12.2255 12.832 12.2255 12.6602C12.2255 12.4596 12.2971 12.2878 12.4404 12.1445Z" fill="white"/>
</svg>
