<svg width="19" height="19" viewBox="0 0 19 19" fill="none" xmlns="http://www.w3.org/2000/svg">
<path d="M13.1815 3.05566H7.84565V5.4465C7.84565 5.75525 7.59232 6.00066 7.29149 6.00066C6.99065 6.00066 6.73732 5.75525 6.73732 5.4465V3.05566H5.81899C2.6919 3.05566 1.66274 3.98983 1.59149 6.91108C1.58357 7.05358 1.6469 7.204 1.74982 7.30691C1.85274 7.41775 1.98732 7.47316 2.14565 7.47316C3.25399 7.47316 4.1644 8.3915 4.1644 9.49983C4.1644 10.6082 3.25399 11.5265 2.14565 11.5265C1.99524 11.5265 1.85274 11.5819 1.74982 11.6927C1.6469 11.7957 1.58357 11.9461 1.59149 12.0886C1.66274 15.0098 2.6919 15.944 5.81899 15.944H6.73732V13.5532C6.73732 13.2444 6.99065 12.999 7.29149 12.999C7.59232 12.999 7.84565 13.2444 7.84565 13.5532V15.944H13.1815C16.4273 15.944 17.4169 14.9544 17.4169 11.7086V7.29108C17.4169 4.04525 16.4273 3.05566 13.1815 3.05566ZM14.6223 9.42066L13.8861 10.1332C13.8544 10.1569 13.8465 10.2044 13.8544 10.244L14.0286 11.2494C14.0602 11.4315 13.989 11.6215 13.8307 11.7323C13.6802 11.8432 13.4823 11.859 13.3161 11.7719L12.4057 11.2969C12.374 11.2811 12.3265 11.2811 12.2948 11.2969L11.3844 11.7719C11.3132 11.8115 11.234 11.8273 11.1548 11.8273C11.0519 11.8273 10.9569 11.7957 10.8698 11.7323C10.7194 11.6215 10.6402 11.4394 10.6719 11.2494L10.8461 10.244C10.854 10.2044 10.8382 10.1648 10.8144 10.1332L10.0782 9.42066C9.94357 9.294 9.89607 9.09608 9.95149 8.92192C10.0069 8.73983 10.1573 8.61316 10.3473 8.58941L11.3607 8.439C11.4002 8.43108 11.4319 8.40733 11.4557 8.37566L11.9069 7.45733C11.994 7.29108 12.1602 7.18816 12.3502 7.18816C12.5402 7.18816 12.7065 7.29108 12.7857 7.45733L13.2369 8.37566C13.2527 8.41525 13.2844 8.439 13.324 8.439L14.3373 8.58941C14.5273 8.61316 14.6777 8.74775 14.7332 8.92192C14.8044 9.09608 14.7569 9.28608 14.6223 9.42066Z" fill="#FB9506"/>
</svg>
