<svg width="30" height="28" viewBox="0 0 30 28" fill="none" xmlns="http://www.w3.org/2000/svg">
<rect x="1.56861" y="0.566656" width="26.8673" height="26.8673" rx="7.36685" fill="#D9D9D9" stroke="#00A51E" stroke-width="0.866689"/>
<rect x="6.74609" y="4.82422" width="14.6883" height="14.6827" fill="#00A51E"/>
<path d="M20.4564 1H9.55802C4.8241 1 2.00195 3.82107 2.00195 8.55319V19.4345C2.00195 24.1796 4.8241 27.0007 9.55802 27.0007H20.4434C25.1774 27.0007 27.9995 24.1796 27.9995 19.4475V8.55319C28.0125 3.82107 25.1904 1 20.4564 1ZM20.2874 12.9213L15.6965 17.5104C15.5014 17.7054 15.2543 17.7964 15.0072 17.7964C14.7601 17.7964 14.513 17.7054 14.318 17.5104L9.72709 12.9213C9.34994 12.5443 9.34994 11.9203 9.72709 11.5433C10.1042 11.1663 10.7285 11.1663 11.1056 11.5433L15.0072 15.4434L18.9088 11.5433C19.286 11.1663 19.9102 11.1663 20.2874 11.5433C20.6645 11.9203 20.6645 12.5313 20.2874 12.9213Z" fill="white"/>
</svg>
