<svg width="40" height="41" viewBox="0 0 40 41" fill="none" xmlns="http://www.w3.org/2000/svg">
<mask id="path-1-inside-1_1501_39639" fill="white">
<path fill-rule="evenodd" clip-rule="evenodd" d="M13.0164 3.36035H26.983C33.0497 3.36035 36.6664 6.97702 36.6497 13.0437V27.0104C36.6497 33.077 33.033 36.6937 26.9664 36.6937H13.0164C6.9497 36.6937 3.33304 33.077 3.33304 26.9937V13.0437C3.33304 6.97702 6.9497 3.36035 13.0164 3.36035Z"/>
</mask>
<path fill-rule="evenodd" clip-rule="evenodd" d="M13.0164 3.36035H26.983C33.0497 3.36035 36.6664 6.97702 36.6497 13.0437V27.0104C36.6497 33.077 33.033 36.6937 26.9664 36.6937H13.0164C6.9497 36.6937 3.33304 33.077 3.33304 26.9937V13.0437C3.33304 6.97702 6.9497 3.36035 13.0164 3.36035Z" fill="white"/>
<path d="M36.6497 13.0437L35.6497 13.0409V13.0437H36.6497ZM26.983 2.36035H13.0164V4.36035H26.983V2.36035ZM37.6497 13.0464C37.6586 9.81359 36.6958 7.11334 34.8052 5.22035C32.9148 3.32758 30.2151 2.36035 26.983 2.36035V4.36035C29.8177 4.36035 31.9596 5.20146 33.3901 6.63368C34.8203 8.0657 35.6575 10.2071 35.6497 13.0409L37.6497 13.0464ZM37.6497 27.0104V13.0437H35.6497V27.0104H37.6497ZM26.9664 37.6937C30.1986 37.6937 32.8979 36.7264 34.7901 34.8341C36.6824 32.9419 37.6497 30.2426 37.6497 27.0104H35.6497C35.6497 29.8448 34.8087 31.9872 33.3759 33.4199C31.9432 34.8527 29.8008 35.6937 26.9664 35.6937V37.6937ZM13.0164 37.6937H26.9664V35.6937H13.0164V37.6937ZM2.33304 26.9937C2.33304 30.2335 3.29992 32.937 5.19216 34.8316C7.08453 36.7263 9.78415 37.6937 13.0164 37.6937V35.6937C10.1819 35.6937 8.03988 34.8527 6.60725 33.4183C5.17449 31.9837 4.33304 29.8372 4.33304 26.9937H2.33304ZM2.33304 13.0437V26.9937H4.33304V13.0437H2.33304ZM13.0164 2.36035C9.78417 2.36035 7.08485 3.32766 5.1926 5.21991C3.30035 7.11216 2.33304 9.81148 2.33304 13.0437H4.33304C4.33304 10.2092 5.17406 8.06688 6.60681 6.63412C8.03956 5.20137 10.1819 4.36035 13.0164 4.36035V2.36035Z" fill="#168E85" mask="url(#path-1-inside-1_1501_39639)"/>
<path d="M26.7512 17.0264L20.0012 23.7764L13.2512 17.0264" stroke="#168E85" stroke-width="2.2" stroke-linecap="round" stroke-linejoin="round"/>
</svg>
