<svg width="29" height="28" viewBox="0 0 29 28" fill="none" xmlns="http://www.w3.org/2000/svg">
<mask id="mask0_287_6983" style="mask-type:luminance" maskUnits="userSpaceOnUse" x="0" y="0" width="29" height="28">
<path d="M0.5 0H28.5V28H0.5V0Z" fill="white"/>
</mask>
<g mask="url(#mask0_287_6983)">
<path d="M27.6856 27.1693H1.31421V24.8117C1.31421 24.6741 1.42604 24.5623 1.56358 24.5623H20.8478C21.0743 24.5623 21.2579 24.3787 21.2579 24.1521C21.2579 23.9256 21.0743 23.742 20.8478 23.742H18.4121V13.4939H24.5959V23.742H22.5957C22.3691 23.742 22.1855 23.9256 22.1855 24.1521C22.1855 24.3787 22.3691 24.5623 22.5957 24.5623H27.4362C27.5737 24.5623 27.6856 24.6741 27.6856 24.8117V27.1693ZM4.40389 16.6439H10.5877V23.7419H4.40389V16.6439ZM27.4362 23.742H25.4162V13.4361C25.4162 13.0156 25.0742 12.6736 24.6538 12.6736H18.4121V9.70218C18.4121 9.28174 18.0701 8.93972 17.6496 8.93972H11.3501C10.9297 8.93972 10.5877 9.28174 10.5877 9.70218V12.6088C10.5877 12.8353 10.7713 13.019 10.9979 13.019C11.2244 13.019 11.408 12.8353 11.408 12.6088V9.76004H17.5918V23.742H11.408V14.3567C11.408 14.1302 11.2244 13.9466 10.9979 13.9466C10.7713 13.9466 10.5877 14.1302 10.5877 14.3567V15.8236H4.34603C3.92559 15.8236 3.58358 16.1656 3.58358 16.586V23.742H1.56358C0.973779 23.742 0.493896 24.2218 0.493896 24.8117V27.5795C0.493896 27.806 0.677537 27.9896 0.904053 27.9896H28.0957C28.3223 27.9896 28.5059 27.806 28.5059 27.5795V24.8117C28.5059 24.2218 28.026 23.742 27.4362 23.742Z" fill="white"/>
<path d="M13.1569 2.94816C13.3953 2.91355 13.6013 2.76387 13.7078 2.54791L14.5002 0.942336L15.2926 2.54791C15.3992 2.76387 15.6052 2.91355 15.8436 2.94816L17.6154 3.20563L16.3333 4.45546C16.1608 4.62357 16.0821 4.86567 16.1229 5.10307L16.4255 6.86778L14.8408 6.03462C14.6275 5.92245 14.3729 5.92251 14.1597 6.03462L12.5749 6.86778L12.8777 5.10307C12.9184 4.86567 12.8397 4.62357 12.6672 4.45541L11.3851 3.20563L13.1569 2.94816ZM12.0613 5.01032L11.7361 6.90601C11.6886 7.18251 11.8001 7.45677 12.0271 7.62165C12.2541 7.78659 12.5493 7.80791 12.7978 7.67743L14.5002 6.78236L16.2027 7.67743C16.3108 7.7342 16.4276 7.76225 16.5439 7.7622C16.695 7.7622 16.8451 7.71489 16.9734 7.62165C17.2004 7.45677 17.3119 7.18251 17.2643 6.90606L16.9392 5.01032L18.3166 3.66774C18.5175 3.47191 18.5884 3.18447 18.5017 2.91765C18.415 2.65083 18.1887 2.46002 17.9111 2.41966L16.0076 2.14305L15.1564 0.41832C15.0323 0.166703 14.7808 0.010406 14.5002 0.010406C14.2197 0.010406 13.9682 0.166703 13.8441 0.418265L12.9929 2.14305L11.0894 2.41966C10.8118 2.46002 10.5855 2.65083 10.4988 2.91765C10.4121 3.18447 10.483 3.47191 10.6838 3.66774L12.0613 5.01032Z" fill="white"/>
<path d="M20.4375 3.88647C20.4375 4.11299 20.6211 4.29663 20.8477 4.29663H21.4351C21.6616 4.29663 21.8452 4.11299 21.8452 3.88647C21.8452 3.65996 21.6616 3.47632 21.4351 3.47632H20.8477C20.6211 3.47632 20.4375 3.65996 20.4375 3.88647Z" fill="white"/>
<path d="M20.1415 1.43115C20.1981 1.43115 20.2558 1.41934 20.3107 1.3944L20.8456 1.15159C21.0518 1.05796 21.1432 0.814824 21.0495 0.608598C20.956 0.402371 20.7128 0.311043 20.5066 0.404613L19.9717 0.647371C19.7654 0.740996 19.6741 0.984137 19.7677 1.19042C19.8364 1.34168 19.9854 1.43115 20.1415 1.43115Z" fill="white"/>
<path d="M19.9717 7.1251L20.5066 7.36786C20.5616 7.39285 20.6192 7.40466 20.6758 7.40466C20.8318 7.40466 20.9809 7.31519 21.0495 7.16387C21.1432 6.95765 21.0518 6.71451 20.8456 6.62088L20.3107 6.37812C20.1043 6.28455 19.8612 6.37588 19.7677 6.58211C19.6741 6.78833 19.7654 7.03148 19.9717 7.1251Z" fill="white"/>
<path d="M7.61963 4.29663H8.20703C8.4336 4.29663 8.61718 4.11299 8.61718 3.88647C8.61718 3.65996 8.4336 3.47632 8.20703 3.47632H7.61963C7.39306 3.47632 7.20947 3.65996 7.20947 3.88647C7.20947 4.11299 7.39306 4.29663 7.61963 4.29663Z" fill="white"/>
<path d="M8.20945 1.15159L8.74435 1.39435C8.79937 1.41934 8.85695 1.43115 8.91361 1.43115C9.06963 1.43115 9.21871 1.34168 9.28734 1.19036C9.38097 0.984137 9.28964 0.740996 9.08336 0.647371L8.54846 0.404613C8.34201 0.310988 8.09898 0.402371 8.00552 0.608598C7.9119 0.814824 8.00322 1.05796 8.20945 1.15159Z" fill="white"/>
<path d="M8.7444 6.37812L8.20951 6.62088C8.00322 6.71451 7.9119 6.95765 8.00552 7.16393C8.07415 7.31519 8.22329 7.40466 8.37926 7.40466C8.43591 7.40466 8.49355 7.39285 8.54851 7.36791L9.08341 7.1251C9.28969 7.03148 9.38102 6.78833 9.2874 6.58211C9.19383 6.37583 8.95068 6.28461 8.7444 6.37812Z" fill="white"/>
</g>
</svg>
