<svg width="50" height="51" viewBox="0 0 50 51" fill="currentColor" xmlns="http://www.w3.org/2000/svg">
<g id="vuesax/bold/gallery">
<g id="gallery">
<path id="Vector" d="M5.37467 40.4062L5.33301 40.4479C4.77051 39.2187 4.41634 37.8229 4.27051 36.2812C4.41634 37.8021 4.81217 39.1771 5.37467 40.4062Z" />
<path id="Vector_2" d="M18.7503 22.4206C21.4887 22.4206 23.7087 20.2007 23.7087 17.4622C23.7087 14.7238 21.4887 12.5039 18.7503 12.5039C16.0119 12.5039 13.792 14.7238 13.792 17.4622C13.792 20.2007 16.0119 22.4206 18.7503 22.4206Z"/>
<path id="Vector_3" d="M33.7305 4.96484H16.2721C8.6888 4.96484 4.16797 9.48568 4.16797 17.069V34.5273C4.16797 36.7982 4.5638 38.7773 5.33464 40.444C7.1263 44.4023 10.9596 46.6315 16.2721 46.6315H33.7305C41.3138 46.6315 45.8346 42.1107 45.8346 34.5273V29.7565V17.069C45.8346 9.48568 41.3138 4.96484 33.7305 4.96484ZM42.4388 26.8398C40.8138 25.444 38.1888 25.444 36.5638 26.8398L27.8971 34.2773C26.2721 35.6732 23.6471 35.6732 22.0221 34.2773L21.3138 33.694C19.8346 32.4023 17.4805 32.2773 15.8138 33.4023L8.02214 38.6315C7.5638 37.4648 7.29297 36.1107 7.29297 34.5273V17.069C7.29297 11.194 10.3971 8.08984 16.2721 8.08984H33.7305C39.6055 8.08984 42.7096 11.194 42.7096 17.069V27.069L42.4388 26.8398Z" />
</g>
</g>
</svg>
