<svg width="142" height="39" viewBox="0 0 142 39" fill="none" xmlns="http://www.w3.org/2000/svg">
<rect width="142" height="39" rx="8" fill="#FAFBFC"/>
<path d="M71.3891 20.5814C69.4727 20.5814 67.9106 22.0935 67.9106 24.1761C67.9106 26.246 69.4727 27.7708 71.3891 27.7708C73.3064 27.7708 74.8684 26.246 74.8684 24.1761C74.8675 22.0935 73.3055 20.5814 71.3891 20.5814ZM71.3891 26.3559C70.3388 26.3559 69.4335 25.4574 69.4335 24.1769C69.4335 22.8829 70.3396 21.998 71.3891 21.998C72.4394 21.998 73.3447 22.8829 73.3447 24.1769C73.3447 25.4566 72.4394 26.3559 71.3891 26.3559ZM63.7999 20.5814C61.8835 20.5814 60.3215 22.0935 60.3215 24.1761C60.3215 26.246 61.8835 27.7708 63.7999 27.7708C65.7172 27.7708 67.2792 26.246 67.2792 24.1761C67.2792 22.0935 65.7172 20.5814 63.7999 20.5814ZM63.7999 26.3559C62.7496 26.3559 61.8444 25.4574 61.8444 24.1769C61.8444 22.8829 62.7504 21.998 63.7999 21.998C64.8502 21.998 65.7555 22.8829 65.7555 24.1769C65.7563 25.4566 64.8502 26.3559 63.7999 26.3559ZM54.7734 21.6852V23.21H58.2918C58.1866 24.0679 57.9112 24.6942 57.4908 25.1295C56.9791 25.6603 56.1781 26.246 54.7734 26.246C52.6076 26.246 50.9144 24.4347 50.9144 22.1881C50.9144 19.9415 52.6076 18.1302 54.7734 18.1302C55.9418 18.1302 56.7949 18.6069 57.4248 19.2197L58.4621 18.1438C57.5821 17.2723 56.4144 16.6055 54.7734 16.6055C51.8066 16.6055 49.3125 19.1107 49.3125 22.1881C49.3125 25.2656 51.8066 27.7708 54.7734 27.7708C56.3745 27.7708 57.5829 27.2256 58.5272 26.2046C59.4985 25.1971 59.8008 23.7805 59.8008 22.6369C59.8008 22.2836 59.7747 21.9565 59.7218 21.6844L54.7734 21.6852ZM91.691 22.8694C91.4026 22.0664 90.5226 20.5814 88.7243 20.5814C86.939 20.5814 85.4552 22.0385 85.4552 24.1761C85.4552 26.1911 86.926 27.7708 88.8946 27.7708C90.4827 27.7708 91.4018 26.7633 91.7831 26.1776L90.6016 25.3602C90.2081 25.9595 89.6695 26.3542 88.8946 26.3542C88.1205 26.3542 87.5689 25.9865 87.2144 25.2647L91.8483 23.2768L91.691 22.8694ZM86.9651 24.0679C86.926 22.6784 88.0024 21.9709 88.7772 21.9709C89.381 21.9709 89.8927 22.2845 90.0638 22.7333L86.9651 24.0679ZM83.1982 27.5536H84.7203V16.9875H83.1982V27.5536ZM80.7032 21.3852H80.6511C80.3097 20.9626 79.6529 20.5814 78.8267 20.5814C77.0936 20.5814 75.5055 22.1611 75.5055 24.1905C75.5055 26.2055 77.0936 27.7716 78.8267 27.7716C79.6538 27.7716 80.3097 27.3904 80.6511 26.9552H80.7032V27.4724C80.7032 28.8476 79.9944 29.5829 78.8528 29.5829C77.9206 29.5829 77.3429 28.889 77.1066 28.3033L75.7809 28.8755C76.1615 29.8281 77.1718 30.9995 78.8528 30.9995C80.6381 30.9995 82.1479 29.91 82.1479 27.2544V20.8003H80.7041L80.7032 21.3852ZM78.9579 26.3559C77.9076 26.3559 77.0284 25.4431 77.0284 24.1905C77.0284 22.9235 77.9076 21.998 78.9579 21.998C79.9944 21.998 80.8084 22.9235 80.8084 24.1905C80.8084 25.4431 79.9944 26.3559 78.9579 26.3559ZM98.8239 16.9875H95.1809V27.5536H96.7005V23.5506H98.8231C100.508 23.5506 102.165 22.2853 102.165 20.2695C102.165 18.2536 100.509 16.9875 98.8239 16.9875ZM98.863 22.0799H96.7005V18.4582H98.863C99.9997 18.4582 100.645 19.4344 100.645 20.2695C100.645 21.0877 99.9997 22.0799 98.863 22.0799ZM108.259 20.5628C107.159 20.5628 106.019 21.0657 105.547 22.1805L106.896 22.7646C107.185 22.1805 107.723 21.9895 108.286 21.9895C109.072 21.9895 109.871 22.4789 109.884 23.3486V23.4576C109.609 23.2945 109.019 23.0503 108.299 23.0503C106.844 23.0503 105.363 23.8794 105.363 25.4287C105.363 26.8427 106.556 27.753 107.892 27.753C108.914 27.753 109.478 27.2772 109.831 26.7193H109.883V27.535H111.352V23.4839C111.353 21.6092 110.002 20.5628 108.259 20.5628ZM108.075 26.3534C107.578 26.3534 106.883 26.0947 106.883 25.4557C106.883 24.6401 107.749 24.3274 108.496 24.3274C109.163 24.3274 109.478 24.477 109.884 24.6807C109.766 25.6603 108.954 26.3534 108.075 26.3534ZM116.699 20.7935L114.956 25.3746H114.903L113.095 20.7935H111.457L114.169 27.196L112.623 30.7578H114.208L118.389 20.7935H116.699ZM103.005 27.5536H104.524V16.9875H103.005V27.5536Z" fill="#3F3F3F"/>
<path d="M54.5091 10.8551C54.5091 11.5634 54.307 12.1272 53.902 12.5481C53.4425 13.0484 52.8428 13.2986 52.1062 13.2986C51.4006 13.2986 50.8 13.0451 50.3071 12.5379C49.8133 12.03 49.5664 11.4011 49.5664 10.6506C49.5664 9.89916 49.8133 9.27032 50.3071 8.76319C50.8 8.25522 51.4006 8.00165 52.1062 8.00165C52.4566 8.00165 52.7914 8.07265 53.1092 8.2138C53.4278 8.3558 53.6828 8.54428 53.8735 8.7801L53.4441 9.22637C53.1206 8.82489 52.6749 8.62458 52.1054 8.62458C51.5904 8.62458 51.1455 8.81222 50.7699 9.18749C50.3943 9.56277 50.2069 10.0505 50.2069 10.6497C50.2069 11.249 50.3943 11.7367 50.7699 12.1119C51.1455 12.4872 51.5904 12.6749 52.1054 12.6749C52.6513 12.6749 53.1068 12.4864 53.471 12.1086C53.7073 11.8626 53.8442 11.5203 53.8808 11.0816H52.1054V10.4722H54.474C54.4985 10.6049 54.5091 10.7325 54.5091 10.8551Z" fill="#3F3F3F"/>
<path d="M58.2654 8.73704H56.0394V10.3446H58.0471V10.954H56.0394V12.5616H58.2654V13.1854H55.4112V8.11411H58.2654V8.73704Z" fill="#3F3F3F"/>
<path d="M60.9143 13.1854H60.2861V8.73704H58.9205V8.11411H62.2799V8.73704H60.9143V13.1854Z" fill="#3F3F3F"/>
<path d="M64.7105 13.1854V8.11411H65.3387V13.1854H64.7105Z" fill="#3F3F3F"/>
<path d="M68.1247 13.1854H67.4965V8.73704H66.1309V8.11411H69.4903V8.73704H68.1247V13.1854Z" fill="#3F3F3F"/>
<path d="M75.8498 12.5304C75.369 13.0426 74.7718 13.2987 74.0572 13.2987C73.3426 13.2987 72.7453 13.0426 72.2654 12.5304C71.7847 12.0182 71.5451 11.391 71.5451 10.6498C71.5451 9.9085 71.7847 9.28135 72.2654 8.76915C72.7453 8.25695 73.3426 8 74.0572 8C74.7677 8 75.3642 8.25779 75.8465 8.77253C76.3289 9.28727 76.5701 9.91273 76.5701 10.6498C76.5701 11.391 76.3297 12.0182 75.8498 12.5304ZM72.729 12.1052C73.0908 12.4856 73.5333 12.6749 74.0572 12.6749C74.5811 12.6749 75.0244 12.4847 75.3853 12.1052C75.7471 11.7249 75.9288 11.2397 75.9288 10.6498C75.9288 10.0598 75.7471 9.57464 75.3853 9.19429C75.0244 8.81394 74.5811 8.62462 74.0572 8.62462C73.5333 8.62462 73.0908 8.81479 72.729 9.19429C72.3681 9.57464 72.1864 10.0598 72.1864 10.6498C72.1864 11.2397 72.3681 11.7249 72.729 12.1052Z" fill="#3F3F3F"/>
<path d="M77.4517 13.1854V8.11411H78.216L80.592 12.0587H80.6189L80.592 11.0817V8.11411H81.2202V13.1854H80.5643L78.0783 9.04892H78.0514L78.0783 10.026V13.1854H77.4517Z" fill="#3F3F3F"/>
<path d="M54.5091 10.8551C54.5091 11.5634 54.307 12.1272 53.902 12.5481C53.4425 13.0484 52.8428 13.2986 52.1062 13.2986C51.4006 13.2986 50.8 13.0451 50.3071 12.5379C49.8133 12.03 49.5664 11.4011 49.5664 10.6506C49.5664 9.89916 49.8133 9.27032 50.3071 8.76319C50.8 8.25522 51.4006 8.00165 52.1062 8.00165C52.4566 8.00165 52.7914 8.07265 53.1092 8.2138C53.4278 8.3558 53.6828 8.54428 53.8735 8.7801L53.4441 9.22637C53.1206 8.82489 52.6749 8.62458 52.1054 8.62458C51.5904 8.62458 51.1455 8.81222 50.7699 9.18749C50.3943 9.56277 50.2069 10.0505 50.2069 10.6497C50.2069 11.249 50.3943 11.7367 50.7699 12.1119C51.1455 12.4872 51.5904 12.6749 52.1054 12.6749C52.6513 12.6749 53.1068 12.4864 53.471 12.1086C53.7073 11.8626 53.8442 11.5203 53.8808 11.0816H52.1054V10.4722H54.474C54.4985 10.6049 54.5091 10.7325 54.5091 10.8551Z" stroke="#3F3F3F" stroke-width="0.162963" stroke-miterlimit="10"/>
<path d="M58.2654 8.73704H56.0394V10.3446H58.0471V10.954H56.0394V12.5616H58.2654V13.1854H55.4112V8.11411H58.2654V8.73704Z" stroke="#3F3F3F" stroke-width="0.162963" stroke-miterlimit="10"/>
<path d="M60.9143 13.1854H60.2861V8.73704H58.9205V8.11411H62.2799V8.73704H60.9143V13.1854Z" stroke="#3F3F3F" stroke-width="0.162963" stroke-miterlimit="10"/>
<path d="M64.7105 13.1854V8.11411H65.3387V13.1854H64.7105Z" stroke="#3F3F3F" stroke-width="0.162963" stroke-miterlimit="10"/>
<path d="M68.1247 13.1854H67.4965V8.73704H66.1309V8.11411H69.4903V8.73704H68.1247V13.1854Z" stroke="#3F3F3F" stroke-width="0.162963" stroke-miterlimit="10"/>
<path d="M75.8498 12.5304C75.369 13.0426 74.7718 13.2987 74.0572 13.2987C73.3426 13.2987 72.7453 13.0426 72.2654 12.5304C71.7847 12.0182 71.5451 11.391 71.5451 10.6498C71.5451 9.9085 71.7847 9.28135 72.2654 8.76915C72.7453 8.25695 73.3426 8 74.0572 8C74.7677 8 75.3642 8.25779 75.8465 8.77253C76.3289 9.28727 76.5701 9.91273 76.5701 10.6498C76.5701 11.391 76.3297 12.0182 75.8498 12.5304ZM72.729 12.1052C73.0908 12.4856 73.5333 12.6749 74.0572 12.6749C74.5811 12.6749 75.0244 12.4847 75.3853 12.1052C75.7471 11.7249 75.9288 11.2397 75.9288 10.6498C75.9288 10.0598 75.7471 9.57464 75.3853 9.19429C75.0244 8.81394 74.5811 8.62462 74.0572 8.62462C73.5333 8.62462 73.0908 8.81479 72.729 9.19429C72.3681 9.57464 72.1864 10.0598 72.1864 10.6498C72.1864 11.2397 72.3681 11.7249 72.729 12.1052Z" stroke="#3F3F3F" stroke-width="0.162963" stroke-miterlimit="10"/>
<path d="M77.4517 13.1854V8.11411H78.216L80.592 12.0587H80.6189L80.592 11.0817V8.11411H81.2202V13.1854H80.5643L78.0783 9.04892H78.0514L78.0783 10.026V13.1854H77.4517Z" stroke="#3F3F3F" stroke-width="0.162963" stroke-miterlimit="10"/>
<path d="M24.3772 9.85242C24.1383 10.078 24 10.4293 24 10.8842V27.1101C24 27.565 24.1383 27.9163 24.3772 28.1419L24.4361 28.1914L34.5145 19.1026V18.888L24.4361 9.79923L24.3772 9.85242Z" fill="#3F3F3F"/>
<path d="M39.0901 22.1338L35.7344 19.1027V18.8881L39.0942 15.8569L39.1694 15.8964L43.1483 17.9388C44.2838 18.5185 44.2838 19.4723 43.1483 20.0556L39.1694 22.0944L39.0901 22.1338Z" fill="#3F3F3F"/>
<path d="M38.5568 22.6587L35.1218 19.5597L24.9844 28.7063C25.3615 29.064 25.9766 29.1071 26.676 28.7494L38.5568 22.6587Z" fill="#3F3F3F"/>
<path d="M38.5568 15.3327L26.676 9.24198C25.9766 8.88796 25.3615 8.93107 24.9844 9.28875L35.1218 18.4316L38.5568 15.3327Z" fill="#3F3F3F"/>
</svg>
