<svg width="29" height="28" viewBox="0 0 29 28" fill="none" xmlns="http://www.w3.org/2000/svg">
<path d="M24.5378 10.4812C25.0182 10.4812 25.4878 10.3386 25.8872 10.0714C26.2866 9.80431 26.598 9.42461 26.7818 8.98038C26.9656 8.53615 27.0137 8.04733 26.92 7.57574C26.8263 7.10415 26.595 6.67096 26.2553 6.33096C25.9156 5.99096 25.4828 5.75942 25.0116 5.66561C24.5405 5.57181 24.0521 5.61995 23.6083 5.80396C23.1645 5.98796 22.7851 6.29957 22.5182 6.69936C22.2513 7.09916 22.1089 7.5692 22.1089 8.05003C22.1098 8.69453 22.366 9.31239 22.8213 9.76812C23.2766 10.2239 23.8939 10.4803 24.5378 10.4812ZM24.5378 6.45311C24.8533 6.45311 25.1618 6.54677 25.4242 6.72224C25.6865 6.89771 25.891 7.14712 26.0118 7.43891C26.1326 7.73071 26.1641 8.0518 26.1026 8.36157C26.041 8.67135 25.8891 8.95589 25.6659 9.17922C25.4428 9.40256 25.1585 9.55465 24.849 9.61627C24.5396 9.67788 24.2188 9.64626 23.9272 9.52539C23.6357 9.40452 23.3865 9.19984 23.2112 8.93723C23.0359 8.67462 22.9423 8.36587 22.9423 8.05003C22.9426 7.62649 23.1108 7.22036 23.4099 6.92076C23.709 6.62116 24.1146 6.45255 24.5378 6.45192V6.45311Z" fill="currentColor"/>
<path d="M24.5377 15.9995C24.3953 16 24.2529 16.0088 24.1115 16.0257C22.6219 15.5025 21.1917 14.8234 19.8445 13.9998C21.1903 13.1728 22.6206 12.4923 24.111 11.9698C24.2525 11.9867 24.3948 11.9955 24.5373 11.996C25.4299 11.9982 26.2971 11.6979 26.9975 11.144C27.698 10.5901 28.1905 9.81518 28.3949 8.94542C28.5993 8.07565 28.5035 7.16225 28.1232 6.35388C27.7429 5.54552 27.1005 4.8898 26.3004 4.49346C25.5004 4.09712 24.5898 3.9835 23.7171 4.1711C22.8443 4.35869 22.0606 4.83646 21.4937 5.52662C20.9267 6.21677 20.6098 7.07869 20.5946 7.97206C20.5794 8.86544 20.8668 9.73766 21.4099 10.4467L17.2427 11.8053L13.0143 11.0078C13.3083 9.86137 13.6722 8.39292 13.9532 6.77454C14.62 2.94503 13.8213 0.390916 13.7865 0.284137C13.7516 0.180287 13.6773 0.094351 13.5796 0.0448998C13.4819 -0.00455126 13.3687 -0.0135458 13.2645 0.0198598C13.1602 0.0532655 13.0733 0.126389 13.0225 0.223427C12.9716 0.320465 12.961 0.433625 12.9928 0.538452C13.0004 0.562287 13.7596 3.01868 13.1319 6.63178C12.8516 8.24443 12.4859 9.71288 12.193 10.8531L9.71524 10.3862C10.1506 8.85931 10.3387 7.27248 10.2725 5.68602C10.2639 5.57571 10.2119 5.47332 10.1279 5.40138C10.044 5.32944 9.93486 5.29383 9.82466 5.3024C9.71445 5.31096 9.61216 5.363 9.54028 5.44705C9.46841 5.53111 9.43284 5.6403 9.44139 5.75061C9.49636 7.26393 9.31093 8.7764 8.89203 10.2315L6.14023 9.71288C7.39945 3.92798 5.66564 0.376139 5.58944 0.224312C5.53874 0.127461 5.45207 0.0544113 5.34808 0.0208889C5.2441 -0.0126336 5.13113 -0.00394788 5.03348 0.0450762C4.93584 0.0941004 4.86133 0.179542 4.826 0.283008C4.79067 0.386473 4.79734 0.499687 4.84458 0.598277C4.86196 0.633076 6.52028 4.06455 5.32083 9.55843L3.09124 9.13846C2.73948 9.07317 2.37744 9.08971 2.03308 9.18679C1.68872 9.28387 1.37127 9.45889 1.10526 9.69834L0.638054 10.1205C0.583627 10.1694 0.543054 10.2319 0.52042 10.3016C0.497786 10.3713 0.49389 10.4457 0.509122 10.5174C0.524354 10.589 0.558179 10.6554 0.607191 10.7098C0.656202 10.7643 0.718672 10.8048 0.788312 10.8274L4.63217 12.0794C4.23937 13.4189 3.96729 14.7909 3.8192 16.179L0.788312 17.1674C0.718818 17.19 0.656495 17.2306 0.607597 17.2849C0.558699 17.3393 0.524945 17.4056 0.509723 17.4771C0.4945 17.5487 0.498344 17.623 0.520869 17.6926C0.543393 17.7622 0.583807 17.8246 0.638054 17.8736L1.10478 18.2955C1.53369 18.6815 2.09009 18.8951 2.6669 18.8952C2.80919 18.8951 2.95117 18.8819 3.09101 18.8556L3.75776 18.73C3.82809 20.4278 4.28085 22.0878 5.08223 23.5858C6.2072 25.6596 8.07403 27.2308 10.3082 27.9843C10.3442 27.9944 10.3815 27.9995 10.4189 27.9995C10.5009 27.9995 10.5811 27.9753 10.6494 27.93C10.7177 27.8846 10.7711 27.8201 10.803 27.7445C10.8348 27.6688 10.8437 27.5855 10.8284 27.5049C10.8132 27.4242 10.7745 27.3499 10.7173 27.2912C9.65364 26.2175 8.91837 24.8622 8.59795 23.3847C9.40409 24.9694 10.6695 26.2737 12.2284 27.1267C13.1678 27.6444 14.2119 27.9429 15.2827 28C15.3642 28 15.444 27.976 15.5121 27.9311C15.5801 27.8862 15.6336 27.8222 15.6657 27.7472C15.6978 27.6721 15.7072 27.5893 15.6928 27.509C15.6783 27.4286 15.6406 27.3543 15.5844 27.2952C15.5425 27.2509 11.9598 23.3901 11.9722 17.1834L17.2444 16.1902L21.4116 17.5488C20.8718 18.2559 20.5869 19.125 20.6031 20.0148C20.6194 20.9046 20.9359 21.7627 21.5011 22.4496C22.0664 23.1365 22.8472 23.6119 23.7165 23.7984C24.5859 23.9848 25.4927 23.8715 26.2896 23.4767C27.0864 23.082 27.7264 22.429 28.1056 21.6241C28.4847 20.8191 28.5806 19.9095 28.3777 19.043C28.1749 18.1765 27.6851 17.4043 26.9882 16.8517C26.2912 16.2991 25.428 15.9988 24.5389 15.9995H24.5377ZM22.4343 10.3366C22.1162 10.0468 21.8622 9.69345 21.6889 9.29933C21.5156 8.90522 21.4268 8.4791 21.4283 8.04851C21.4283 7.43296 21.6107 6.83124 21.9524 6.31946C22.2941 5.80767 22.7798 5.40879 23.348 5.17326C23.9161 4.93773 24.5413 4.87613 25.1445 4.99625C25.7477 5.11637 26.3017 5.41281 26.7365 5.84808C27.1714 6.28336 27.4675 6.83792 27.5875 7.44165C27.7074 8.04537 27.6458 8.67115 27.4105 9.23984C27.1751 9.80853 26.7766 10.2946 26.2652 10.6366C25.7539 10.9785 25.1527 11.1611 24.5377 11.1611C24.3976 11.1598 24.2578 11.1492 24.1191 11.1294C24.0524 11.1204 23.9845 11.1278 23.9212 11.1508C18.9913 12.9427 17.4151 14.7899 17.0148 15.385L11.9951 16.3306C12.0332 15.6548 12.1122 14.982 12.2315 14.3158L22.2812 11.04C22.3504 11.0175 22.4125 10.9772 22.4613 10.9233C22.5101 10.8693 22.5439 10.8034 22.5594 10.7323C22.5749 10.6611 22.5715 10.5872 22.5496 10.5178C22.5276 10.4484 22.4879 10.3859 22.4343 10.3366ZM2.93694 9.95838L15.5937 12.3418L11.8617 13.5574L1.73416 10.2577C1.90155 10.1246 2.09555 10.0289 2.30306 9.97728C2.51056 9.92564 2.72673 9.91919 2.93694 9.95838ZM2.93694 18.0364C2.72672 18.0753 2.51062 18.0687 2.30315 18.0171C2.09569 17.9655 1.90168 17.87 1.73416 17.737L3.75252 17.0792C3.73919 17.3522 3.73268 17.6213 3.733 17.8865L2.93694 18.0364ZM8.4615 20.8641C8.43471 20.7742 8.37838 20.6959 8.30162 20.6419C8.22486 20.588 8.13216 20.5615 8.03852 20.5668C7.94487 20.5722 7.85576 20.6089 7.78559 20.6713C7.71543 20.7336 7.66831 20.8177 7.65186 20.9102C7.41333 22.8626 7.88685 24.8356 8.98538 26.4665C7.65512 25.6731 6.55941 24.5401 5.81042 23.1835C4.28641 20.4203 4.1602 16.772 5.42347 12.3387L7.88975 13.1427C7.32896 15.0919 7.42064 16.3022 7.42493 16.357C7.43376 16.461 7.48125 16.5579 7.55802 16.6285C7.63479 16.6991 7.73524 16.7383 7.83951 16.7384C7.85094 16.7384 7.86213 16.7384 7.87356 16.7369C7.98345 16.7278 8.08524 16.6754 8.15665 16.5913C8.22805 16.5072 8.26326 16.3982 8.25457 16.2881C8.25457 16.2765 8.17717 15.1746 8.6832 13.4006L11.3876 14.2825C10.9839 16.4932 11.033 18.763 11.5317 20.9542C12.0304 23.1455 12.9684 25.2125 14.289 27.0302C12.7523 26.6774 9.84026 25.4094 8.46245 20.8641H8.4615ZM24.5368 23.0569C23.7127 23.0557 22.9227 22.7275 22.34 22.1442C21.7573 21.5609 21.4294 20.7702 21.4283 19.9453C21.4268 19.5147 21.5156 19.0886 21.6889 18.6945C21.8622 18.3004 22.1162 17.947 22.4343 17.6572C22.4879 17.6079 22.5276 17.5455 22.5496 17.4761C22.5715 17.4066 22.5749 17.3327 22.5594 17.2615C22.5439 17.1904 22.5101 17.1246 22.4613 17.0706C22.4125 17.0166 22.3504 16.9763 22.2812 16.9538L17.9473 15.5414C18.2947 15.1569 18.6817 14.8102 19.1018 14.507C20.6097 15.4744 22.2274 16.2585 23.9207 16.8428C23.984 16.8658 24.0519 16.8731 24.1186 16.864C24.2573 16.8441 24.3972 16.8335 24.5373 16.8323C25.3619 16.8323 26.1528 17.1602 26.736 17.7439C27.3191 18.3275 27.6467 19.1192 27.6467 19.9446C27.6467 20.7701 27.3191 21.5617 26.736 22.1454C26.1528 22.729 25.3619 23.0569 24.5373 23.0569H24.5368Z" fill="currentColor"/>
<path d="M24.5378 17.5137C24.0574 17.5137 23.5878 17.6563 23.1884 17.9234C22.7889 18.1905 22.4776 18.5702 22.2938 19.0145C22.1099 19.4587 22.0618 19.9475 22.1556 20.4191C22.2493 20.8907 22.4806 21.3239 22.8203 21.6639C23.16 22.0039 23.5928 22.2354 24.0639 22.3292C24.5351 22.423 25.0235 22.3749 25.4673 22.1909C25.9111 22.0069 26.2905 21.6953 26.5573 21.2955C26.8242 20.8957 26.9667 20.4256 26.9667 19.9448C26.9658 19.3003 26.7096 18.6824 26.2543 18.2267C25.799 17.771 25.1817 17.5146 24.5378 17.5137ZM24.5378 21.5429C24.2222 21.5429 23.9138 21.4493 23.6514 21.2738C23.389 21.0983 23.1845 20.8489 23.0638 20.5571C22.943 20.2653 22.9114 19.9442 22.973 19.6345C23.0346 19.3247 23.1865 19.0401 23.4096 18.8168C23.6328 18.5935 23.917 18.4414 24.2265 18.3798C24.536 18.3181 24.8568 18.3498 25.1483 18.4706C25.4399 18.5915 25.6891 18.7962 25.8644 19.0588C26.0397 19.3214 26.1332 19.6302 26.1332 19.946C26.1326 20.3693 25.9643 20.7751 25.6653 21.0745C25.3662 21.3738 24.9607 21.5423 24.5378 21.5429Z" fill="currentColor"/>
<path d="M16.6252 13.4552C16.5181 13.4552 16.4133 13.487 16.3243 13.5465C16.2352 13.606 16.1657 13.6906 16.1247 13.7896C16.0837 13.8886 16.073 13.9975 16.0939 14.1026C16.1148 14.2077 16.1664 14.3042 16.2422 14.38C16.3179 14.4558 16.4145 14.5074 16.5195 14.5283C16.6246 14.5492 16.7336 14.5384 16.8326 14.4974C16.9315 14.4564 17.0161 14.387 17.0757 14.2979C17.1352 14.2088 17.167 14.1041 17.167 13.9969C17.1669 13.8533 17.1098 13.7155 17.0082 13.6139C16.9067 13.5124 16.7689 13.4553 16.6252 13.4552Z" fill="currentColor"/>
</svg>
