<svg width="12" height="12" viewBox="0 0 12 12" fill="none" xmlns="http://www.w3.org/2000/svg">
<path d="M7.09938 6.00778L11.7719 1.33508C12.076 1.03114 12.076 0.539708 11.7719 0.235768C11.468 -0.0681725 10.9766 -0.0681725 10.6726 0.235768L5.99993 4.90847L1.32737 0.235768C1.02329 -0.0681725 0.532002 -0.0681725 0.228062 0.235768C-0.0760206 0.539708 -0.0760206 1.03114 0.228062 1.33508L4.90062 6.00778L0.228062 10.6805C-0.0760206 10.9844 -0.0760206 11.4759 0.228062 11.7798C0.379534 11.9314 0.578696 12.0076 0.777716 12.0076C0.976736 12.0076 1.17576 11.9314 1.32737 11.7798L5.99993 7.10709L10.6726 11.7798C10.8243 11.9314 11.0233 12.0076 11.2223 12.0076C11.4213 12.0076 11.6203 11.9314 11.7719 11.7798C12.076 11.4759 12.076 10.9844 11.7719 10.6805L7.09938 6.00778Z" fill="#484848"/>
</svg>
