<svg xmlns="http://www.w3.org/2000/svg" xmlns:xlink="http://www.w3.org/1999/xlink" width="929" height="6" preserveAspectRatio="none"><defs><path id="a" d="M0 0h929v6H0z"/><path id="c" d="M446.55 0H0v1032h446.55z"/></defs><g fill="none" fill-rule="evenodd"><mask id="b" fill="#fff"><use xlink:href="#a"/></mask><use fill="#F1AE2A" fill-rule="nonzero" xlink:href="#a"/><g mask="url(#b)"><path fill="#001E62" d="M905.224 306.244c-54.209-72.379-114.355 74.009-190.69 131.935-88.521 67.175-121.696-161.575-125.606-265.598C585.392 78.536 579.86-6.432 573.724-82H314.587C370.468 38.314 427.8 128.289 429.313 165.435c2.386 58.513-13.52 115.149-39.713 141.261-26.192 26.114-61.746 68.507-68.863 103.39-7.118 34.88-4.598 91.365 12.149 147.657 47.295 158.977 4.09 180.485-17.602 191.211-12.617 6.24-35.462 6.382-36.325 35.57-.73 24.65 18.674 23.479 41.62 49.158 24.981 27.953 11.82 56.376 3.638 116.318H1015V574.353c-38.303-119.044-81.134-229.866-109.776-268.11"/><path fill="#00B0B9" d="M588.927 172.58c3.912 104.024 37.086 332.775 125.608 265.6 76.334-57.927 136.48-204.316 190.689-131.936 28.641 38.241 71.473 149.063 109.776 268.108V-82H573.723c6.138 75.567 11.668 160.537 15.204 254.58"/><g transform="translate(-17 -82)"><mask id="d" fill="#fff"><use xlink:href="#c"/></mask><path fill="#FFB500" d="M337.58 915.681c-22.947-25.679-42.352-24.505-41.622-49.159.865-29.187 23.709-29.329 36.326-35.567 21.691-10.728 64.897-32.234 17.602-191.213-16.747-56.292-19.267-112.775-12.15-147.657 7.118-34.883 42.672-77.276 68.864-103.388 26.192-26.114 42.099-82.75 39.714-141.263-1.515-37.146-58.846-127.12-114.727-247.435H0v1032h341.217c8.182-59.942 21.343-88.363-3.637-116.318" mask="url(#d)"/></g></g></g></svg>