<svg width="45" height="40" viewBox="0 0 45 40" fill="none" xmlns="http://www.w3.org/2000/svg">
<circle cx="24.9336" cy="20" r="19.5" stroke="white"/>
<g clip-path="url(#clip0_1399_11081)">
<g clip-path="url(#clip1_1399_11081)">
<g clip-path="url(#clip2_1399_11081)">
<mask id="mask0_1399_11081" style="mask-type:luminance" maskUnits="userSpaceOnUse" x="17" y="12" width="16" height="15">
<path d="M32.1367 12H17.1367V27H32.1367V12Z" fill="white"/>
</mask>
<g mask="url(#mask0_1399_11081)">
<path d="M20.6282 16.8242H17.6169C17.4833 16.8242 17.375 16.9326 17.375 17.0662V26.7401C17.375 26.8737 17.4833 26.982 17.6169 26.982H20.6282C20.7619 26.982 20.8701 26.8737 20.8701 26.7401V17.0662C20.8701 16.9326 20.7619 16.8242 20.6282 16.8242Z" fill="white"/>
<path d="M19.1238 12.0156C18.0281 12.0156 17.1367 12.906 17.1367 14.0005C17.1367 15.0955 18.0281 15.9862 19.1238 15.9862C20.2186 15.9862 21.1092 15.0954 21.1092 14.0005C21.1093 12.906 20.2186 12.0156 19.1238 12.0156Z" fill="white"/>
<path d="M28.2869 16.5859C27.0774 16.5859 26.1834 17.1059 25.6411 17.6966V17.0683C25.6411 16.9347 25.5328 16.8264 25.3992 16.8264H22.5154C22.3817 16.8264 22.2734 16.9347 22.2734 17.0683V26.7423C22.2734 26.8759 22.3817 26.9842 22.5154 26.9842H25.5201C25.6537 26.9842 25.762 26.8759 25.762 26.7423V21.9559C25.762 20.343 26.2001 19.7146 27.3244 19.7146C28.5489 19.7146 28.6462 20.722 28.6462 22.0389V26.7423C28.6462 26.8759 28.7545 26.9842 28.8881 26.9842H31.8939C32.0276 26.9842 32.1359 26.8759 32.1359 26.7423V21.436C32.1359 19.0377 31.6786 16.5859 28.2869 16.5859Z" fill="white"/>
</g>
</g>
</g>
</g>
<defs>
<clipPath id="clip0_1399_11081">
<rect width="15" height="15" fill="white" transform="translate(17.1367 12)"/>
</clipPath>
<clipPath id="clip1_1399_11081">
<rect width="15" height="15" fill="white" transform="translate(17.1367 12)"/>
</clipPath>
<clipPath id="clip2_1399_11081">
<rect width="15" height="15" fill="white" transform="translate(17.1367 12)"/>
</clipPath>
</defs>
</svg>
