<svg width="18" height="19" viewBox="0 0 18 19" fill="none" xmlns="http://www.w3.org/2000/svg">
<path d="M15.4651 7.09824C14.6776 3.63324 11.6551 2.07324 9.00007 2.07324C9.00007 2.07324 9.00007 2.07324 8.99257 2.07324C6.34507 2.07324 3.31507 3.62574 2.52757 7.09074C1.65007 10.9607 4.02007 14.2382 6.16507 16.3007C6.96007 17.0657 7.98007 17.4482 9.00007 17.4482C10.0201 17.4482 11.0401 17.0657 11.8276 16.3007C13.9726 14.2382 16.3426 10.9682 15.4651 7.09824ZM9.00007 10.8557C7.69507 10.8557 6.63757 9.79824 6.63757 8.49324C6.63757 7.18824 7.69507 6.13074 9.00007 6.13074C10.3051 6.13074 11.3626 7.18824 11.3626 8.49324C11.3626 9.79824 10.3051 10.8557 9.00007 10.8557Z" fill="#292D32"/>
</svg>
