<svg width="89" height="22" viewBox="0 0 89 22" fill="none" xmlns="http://www.w3.org/2000/svg">
<path d="M0.1 21.5V0.499999H6.04V16.79H16.06V21.5H0.1ZM28.6783 21.92C26.9983 21.92 25.4483 21.65 24.0283 21.11C22.6083 20.57 21.3683 19.81 20.3083 18.83C19.2683 17.83 18.4583 16.67 17.8783 15.35C17.2983 14.03 17.0083 12.58 17.0083 11C17.0083 9.42 17.2983 7.97 17.8783 6.65C18.4583 5.33 19.2683 4.18 20.3083 3.2C21.3683 2.2 22.6083 1.43 24.0283 0.889999C25.4483 0.349999 26.9983 0.0799986 28.6783 0.0799986C30.3783 0.0799986 31.9283 0.349999 33.3283 0.889999C34.7483 1.43 35.9783 2.2 37.0183 3.2C38.0583 4.18 38.8683 5.33 39.4483 6.65C40.0483 7.97 40.3483 9.42 40.3483 11C40.3483 12.58 40.0483 14.04 39.4483 15.38C38.8683 16.7 38.0583 17.85 37.0183 18.83C35.9783 19.81 34.7483 20.57 33.3283 21.11C31.9283 21.65 30.3783 21.92 28.6783 21.92ZM28.6783 17C29.4783 17 30.2183 16.86 30.8983 16.58C31.5983 16.3 32.1983 15.9 32.6983 15.38C33.2183 14.84 33.6183 14.2 33.8983 13.46C34.1983 12.72 34.3483 11.9 34.3483 11C34.3483 10.08 34.1983 9.26 33.8983 8.54C33.6183 7.8 33.2183 7.17 32.6983 6.65C32.1983 6.11 31.5983 5.7 30.8983 5.42C30.2183 5.14 29.4783 5 28.6783 5C27.8783 5 27.1283 5.14 26.4283 5.42C25.7483 5.7 25.1483 6.11 24.6283 6.65C24.1283 7.17 23.7283 7.8 23.4283 8.54C23.1483 9.26 23.0083 10.08 23.0083 11C23.0083 11.9 23.1483 12.72 23.4283 13.46C23.7283 14.2 24.1283 14.84 24.6283 15.38C25.1483 15.9 25.7483 16.3 26.4283 16.58C27.1283 16.86 27.8783 17 28.6783 17ZM53.9594 21.92C52.2994 21.92 50.7594 21.66 49.3394 21.14C47.9194 20.6 46.6894 19.84 45.6494 18.86C44.6294 17.88 43.8294 16.73 43.2494 15.41C42.6694 14.07 42.3794 12.6 42.3794 11C42.3794 9.4 42.6694 7.94 43.2494 6.62C43.8294 5.28 44.6394 4.12 45.6794 3.14C46.7194 2.16 47.9494 1.41 49.3694 0.889999C50.8094 0.349999 52.3794 0.0799986 54.0794 0.0799986C56.0594 0.0799986 57.8294 0.409999 59.3894 1.07C60.9494 1.73 62.2394 2.68 63.2594 3.92L59.4794 7.34C58.7594 6.56 57.9794 5.98 57.1394 5.6C56.3194 5.2 55.3994 5 54.3794 5C53.4794 5 52.6594 5.14 51.9194 5.42C51.1794 5.7 50.5494 6.11 50.0294 6.65C49.5094 7.17 49.0994 7.8 48.7994 8.54C48.5194 9.26 48.3794 10.08 48.3794 11C48.3794 11.88 48.5194 12.69 48.7994 13.43C49.0994 14.17 49.5094 14.81 50.0294 15.35C50.5494 15.87 51.1694 16.28 51.8894 16.58C52.6294 16.86 53.4394 17 54.3194 17C55.1994 17 56.0594 16.86 56.8994 16.58C57.7394 16.28 58.5894 15.78 59.4494 15.08L62.7794 19.25C61.5794 20.11 60.1894 20.77 58.6094 21.23C57.0294 21.69 55.4794 21.92 53.9594 21.92ZM57.5294 18.47V10.55H62.7794V19.25L57.5294 18.47ZM77.1353 21.92C75.4553 21.92 73.9053 21.65 72.4853 21.11C71.0653 20.57 69.8253 19.81 68.7653 18.83C67.7253 17.83 66.9153 16.67 66.3353 15.35C65.7553 14.03 65.4653 12.58 65.4653 11C65.4653 9.42 65.7553 7.97 66.3353 6.65C66.9153 5.33 67.7253 4.18 68.7653 3.2C69.8253 2.2 71.0653 1.43 72.4853 0.889999C73.9053 0.349999 75.4553 0.0799986 77.1353 0.0799986C78.8353 0.0799986 80.3853 0.349999 81.7853 0.889999C83.2053 1.43 84.4353 2.2 85.4753 3.2C86.5153 4.18 87.3253 5.33 87.9053 6.65C88.5053 7.97 88.8053 9.42 88.8053 11C88.8053 12.58 88.5053 14.04 87.9053 15.38C87.3253 16.7 86.5153 17.85 85.4753 18.83C84.4353 19.81 83.2053 20.57 81.7853 21.11C80.3853 21.65 78.8353 21.92 77.1353 21.92ZM77.1353 17C77.9353 17 78.6753 16.86 79.3553 16.58C80.0553 16.3 80.6553 15.9 81.1553 15.38C81.6753 14.84 82.0753 14.2 82.3553 13.46C82.6553 12.72 82.8053 11.9 82.8053 11C82.8053 10.08 82.6553 9.26 82.3553 8.54C82.0753 7.8 81.6753 7.17 81.1553 6.65C80.6553 6.11 80.0553 5.7 79.3553 5.42C78.6753 5.14 77.9353 5 77.1353 5C76.3353 5 75.5853 5.14 74.8853 5.42C74.2053 5.7 73.6053 6.11 73.0853 6.65C72.5853 7.17 72.1853 7.8 71.8853 8.54C71.6053 9.26 71.4653 10.08 71.4653 11C71.4653 11.9 71.6053 12.72 71.8853 13.46C72.1853 14.2 72.5853 14.84 73.0853 15.38C73.6053 15.9 74.2053 16.3 74.8853 16.58C75.5853 16.86 76.3353 17 77.1353 17Z" fill="currentColor"/>
</svg>
