<svg width="23" height="28" viewBox="0 0 23 28" fill="none" xmlns="http://www.w3.org/2000/svg">
<path d="M9.70848 14.1049L9.58768 14.1845C9.09648 14.5083 8.46172 14.5083 7.97046 14.1844L7.84971 14.1049C7.6606 13.9804 7.4062 14.0327 7.28156 14.2218C7.15693 14.411 7.20927 14.6653 7.39848 14.79L7.51907 14.8694C7.90183 15.1217 8.34042 15.2478 8.77912 15.2478C9.21772 15.2478 9.65637 15.1217 10.039 14.8695L10.1598 14.79C10.3489 14.6654 10.4013 14.411 10.2767 14.2218C10.152 14.0326 9.89759 13.9804 9.70848 14.1049Z" fill="currentColor"/>
<path d="M15.6011 14.79C15.7903 14.6654 15.8427 14.411 15.718 14.2218C15.5934 14.0326 15.3391 13.9804 15.1499 14.1049L15.0291 14.1845C14.5379 14.5083 13.9031 14.5083 13.4119 14.1844L13.2911 14.1049C13.102 13.9804 12.8476 14.0327 12.723 14.2218C12.5983 14.411 12.6507 14.6653 12.8399 14.79L12.9605 14.8694C13.3432 15.1217 13.7818 15.2478 14.2205 15.2478C14.6591 15.2478 15.0978 15.1217 15.4804 14.8695L15.6011 14.79Z" fill="currentColor"/>
<path d="M12.8804 18.8851C13.0696 18.7605 13.122 18.5061 12.9973 18.3169C12.8727 18.1277 12.6184 18.0754 12.4292 18.2L12.3084 18.2796C11.8172 18.6033 11.1824 18.6033 10.6912 18.2795L10.5704 18.2C10.3813 18.0755 10.1269 18.1278 10.0023 18.3169C9.87763 18.5061 9.92997 18.7604 10.1192 18.8851L10.2398 18.9645C10.6225 19.2168 11.0611 19.3429 11.4998 19.3429C11.9384 19.3429 12.3771 19.2168 12.7597 18.9646L12.8804 18.8851Z" fill="currentColor"/>
<path d="M22.2513 4.08297C22.4778 4.08297 22.6614 3.89938 22.6614 3.67281V1.39169C22.6614 0.624313 22.0371 0 21.2697 0H18.9349C18.1675 0 17.5432 0.624313 17.5432 1.39169V5.98068C16.0214 4.26103 13.8379 3.26266 11.5001 3.26266C9.16204 3.26266 6.9788 4.26202 5.45712 5.98221V4.12781C5.45712 3.90124 5.27348 3.71766 5.04697 3.71766C4.82045 3.71766 4.63681 3.90124 4.63681 4.12781V6.0801H1.15923V1.39169C1.15918 1.07669 1.41555 0.820312 1.73061 0.820312H4.06538C4.38044 0.820312 4.63676 1.07669 4.63676 1.39169V2.31656C4.63676 2.54313 4.8204 2.72672 5.04691 2.72672C5.27343 2.72672 5.45707 2.54313 5.45707 2.31656V1.39169C5.45707 0.624313 4.83276 0 4.06538 0H1.73061C0.963234 0 0.338867 0.624313 0.338867 1.39169V8.3481C0.338867 10.0553 0.601586 11.7456 1.1197 13.3723L1.39532 14.2376C1.75161 15.3561 2.35853 16.4055 3.15052 17.2721L5.58165 19.9323C5.81566 20.1884 6.14881 20.3358 6.49564 20.3369H6.49947C6.62241 20.3369 6.74354 20.3182 6.85937 20.2831C7.35855 20.7979 7.93245 21.2475 8.57059 21.6138V22.7602C8.57059 23.3116 8.20156 23.8069 7.67323 23.9647L3.61541 25.1769C3.16665 25.3109 2.7508 25.5223 2.37931 25.8054C1.9586 26.1259 1.79651 26.6583 1.96642 27.1617C2.13836 27.6709 2.59538 28 3.13083 28H19.8695C20.4049 28 20.8619 27.6709 21.0338 27.1618C21.2037 26.6584 21.0416 26.126 20.6209 25.8055C20.2494 25.5224 19.8336 25.311 19.3848 25.177L18.4995 24.9125C18.2825 24.8475 18.054 24.9711 17.9892 25.1881C17.9243 25.4052 18.0477 25.6337 18.2647 25.6985L19.1501 25.963C19.5037 26.0686 19.8313 26.2352 20.1238 26.458C20.3317 26.6165 20.278 26.836 20.2565 26.8995C20.2343 26.9652 20.1409 27.1797 19.8695 27.1797H3.13083C2.85947 27.1797 2.76595 26.9652 2.7438 26.8995C2.72237 26.836 2.66861 26.6165 2.87659 26.458C3.16911 26.2352 3.49669 26.0686 3.8503 25.963L7.90811 24.7509C8.7812 24.49 9.39102 23.6715 9.39102 22.7603V22.0548C10.0806 22.3728 10.8266 22.5321 11.5727 22.5321C12.2671 22.5321 12.9612 22.3939 13.6094 22.1192V22.7603C13.6094 23.6715 14.2192 24.49 15.0923 24.7509L16.46 25.1594C16.6769 25.2243 16.9055 25.1009 16.9704 24.8838C17.0352 24.6667 16.9119 24.4383 16.6948 24.3734L15.3271 23.9648C14.7987 23.807 14.4297 23.3117 14.4297 22.7603V21.6907L14.4513 21.6782C14.4513 21.6782 14.4513 21.6782 14.4514 21.6782C15.1045 21.3005 15.6893 20.8333 16.1959 20.2986C16.2949 20.3237 16.3972 20.337 16.5008 20.337H16.5047C16.8515 20.3359 17.1847 20.1884 17.4186 19.9324L19.8498 17.2722C20.6418 16.4055 21.2487 15.3563 21.605 14.2377L21.8806 13.3724C22.3988 11.7458 22.6614 10.0554 22.6614 8.34821V5.33531C22.6614 5.10874 22.4778 4.92516 22.2513 4.92516C22.0248 4.92516 21.8411 5.10874 21.8411 5.33531V6.08016H18.3635V1.39169C18.3635 1.07663 18.6199 0.820312 18.935 0.820312H21.2697C21.5848 0.820312 21.8412 1.07669 21.8412 1.39169V3.67281C21.8411 3.89938 22.0247 4.08297 22.2513 4.08297ZM17.5432 7.32293V8.81792C17.5432 9.07446 17.4442 9.31673 17.2647 9.49998C17.2153 9.55035 17.1686 9.60263 17.1232 9.65579C15.8868 7.87473 13.8276 6.70595 11.5001 6.70595C11.4421 6.70595 11.3844 6.70742 11.3267 6.70884C12.6453 6.08251 14.0852 5.71506 15.544 5.63757L15.9624 5.61531C16.5684 6.08874 17.1035 6.66236 17.5432 7.32293ZM11.5001 4.08297C12.671 4.08297 13.7986 4.36209 14.8045 4.87638C13.1197 5.06554 11.4777 5.61285 10.0179 6.47686L8.17039 7.57028C8.15885 7.57712 8.1478 7.58445 8.1372 7.59216C7.23775 8.10217 6.46469 8.80983 5.87723 9.65595C5.83173 9.60274 5.78503 9.55041 5.73559 9.49993C5.556 9.31667 5.45707 9.07446 5.45707 8.81787V7.32293C6.80829 5.29293 9.06087 4.08297 11.5001 4.08297ZM3.75607 16.7187C3.04355 15.9391 2.49749 14.995 2.17697 13.9886L1.90134 13.1234C1.40888 11.5773 1.15923 9.97073 1.15923 8.34816V6.90047H4.63681V8.81792C4.63681 9.29053 4.81903 9.73667 5.14978 10.0742C5.55862 10.4913 5.78377 11.0427 5.78377 11.6268V14.1909C5.78377 14.4401 5.6278 14.6531 5.40851 14.7387L4.83675 13.7499C4.58448 13.3135 4.45115 12.8166 4.45115 12.3126V11.5566C4.45115 11.33 4.26751 11.1464 4.04099 11.1464C3.81448 11.1464 3.63084 11.33 3.63084 11.5566V12.3124C3.63084 12.9604 3.80228 13.5994 4.12658 14.1603L6.86549 18.8809C6.9595 19.0426 6.93724 19.2435 6.81015 19.3809C6.72883 19.4688 6.61814 19.5163 6.49827 19.5166C6.3785 19.5162 6.26803 19.4673 6.1872 19.3789L3.75607 16.7187ZM14.0407 20.968L13.7658 21.1269C12.4372 21.8954 10.7793 21.9081 9.43903 21.1602L9.0531 20.9449C8.48616 20.6286 7.97559 20.2384 7.52836 19.7916C7.79567 19.4 7.81924 18.8895 7.57484 18.4688L5.82238 15.4521C6.28537 15.221 6.60409 14.7424 6.60409 14.1908V11.6267C6.60409 11.2062 6.51812 10.7984 6.35602 10.4229C7.4139 8.68777 9.32359 7.52626 11.5002 7.52626C13.6768 7.52626 15.5865 8.68766 16.6444 10.4228C16.4823 10.7984 16.3963 11.2062 16.3963 11.6267V14.1908C16.3963 14.7425 16.715 15.2211 17.178 15.4522L15.4255 18.4688C15.172 18.9052 15.2071 19.4381 15.5032 19.8348C15.0728 20.2709 14.5833 20.6542 14.0407 20.968ZM21.8411 6.90047V8.34816C21.8411 9.97073 21.5914 11.5773 21.099 13.1234L20.8234 13.9886C20.5028 14.995 19.9568 15.9391 19.2443 16.7187L16.8131 19.379C16.7323 19.4674 16.6218 19.5163 16.502 19.5167C16.5016 19.5167 16.5011 19.5167 16.5007 19.5167C16.3814 19.5167 16.2712 19.4685 16.1902 19.381C16.0631 19.2437 16.0409 19.0427 16.1348 18.881L18.8737 14.1604C19.1981 13.5995 19.3695 12.9605 19.3695 12.3125V11.5566C19.3695 11.33 19.1858 11.1464 18.9593 11.1464C18.7328 11.1464 18.5492 11.33 18.5492 11.5566V12.3124C18.5492 12.8164 18.4158 13.3134 18.1635 13.7497L17.5918 14.7386C17.3725 14.6529 17.2165 14.4399 17.2165 14.1907V11.6266C17.2165 11.0426 17.4417 10.4912 17.8505 10.074C18.1813 9.73651 18.3635 9.29037 18.3635 8.81776V6.90047H21.8411Z" fill="currentColor"/>
</svg>
