<svg width="21" height="20" viewBox="0 0 21 20" fill="none" xmlns="http://www.w3.org/2000/svg">
<g id="vuesax/bold/menu">
<g id="menu">
<path id="Vector" d="M11.6663 3.24211C11.6663 3.88644 11.144 4.40877 10.4997 4.40877C9.85534 4.40877 9.33301 3.88644 9.33301 3.24211C9.33301 2.59777 9.85534 2.07544 10.4997 2.07544C11.144 2.07544 11.6663 2.59777 11.6663 3.24211Z" fill="currentColor" stroke="currentColor"/>
<path id="Vector_2" d="M10.4997 11.5089C11.4201 11.5089 12.1663 10.7627 12.1663 9.8422C12.1663 8.92173 11.4201 8.17554 10.4997 8.17554C9.5792 8.17554 8.83301 8.92173 8.83301 9.8422C8.83301 10.7627 9.5792 11.5089 10.4997 11.5089Z" fill="currentColor"/>
<path id="Vector_3" d="M10.4997 18.1087C11.4201 18.1087 12.1663 17.3625 12.1663 16.4421C12.1663 15.5216 11.4201 14.7754 10.4997 14.7754C9.5792 14.7754 8.83301 15.5216 8.83301 16.4421C8.83301 17.3625 9.5792 18.1087 10.4997 18.1087Z" fill="currentColor"/>
</g>
</g>
</svg>
