<svg width="10" height="20" viewBox="0 0 10 20" fill="none" xmlns="http://www.w3.org/2000/svg">
<path d="M8.29143 4.24553V2.69436C8.29143 1.54873 7.35939 0.616699 6.21377 0.616699H4.32549C3.17986 0.616699 2.24783 1.54873 2.24783 2.69436V4.24639C1.27658 5.11014 0.721191 6.33904 0.721191 7.64381V17.8165C0.721191 18.9106 1.61143 19.8008 2.70549 19.8008H7.83369C8.92783 19.8008 9.81799 18.9105 9.81799 17.8165V7.64381C9.81799 6.42873 9.34486 5.28646 8.4858 4.42756C8.42385 4.36553 8.3583 4.30506 8.29143 4.24553ZM2.87283 2.69436C2.87283 1.89334 3.52447 1.2417 4.32549 1.2417H6.21377C7.01479 1.2417 7.66643 1.89334 7.66643 2.69436V8.41756C7.66643 9.65428 6.66033 10.6604 5.42369 10.6604H5.11564C3.879 10.6604 2.87291 9.65428 2.87291 8.41756L2.87283 2.69436ZM9.19307 17.8165C9.19307 18.566 8.58322 19.1758 7.83377 19.1758H2.70557C1.95604 19.1758 1.34627 18.5659 1.34627 17.8165V7.64381C1.34627 6.72014 1.66932 5.84061 2.24791 5.14279V8.41756C2.24791 9.99889 3.53439 11.2854 5.11564 11.2854H5.42369C7.00494 11.2854 8.29143 9.99889 8.29143 8.41756V5.14139C8.87502 5.84365 9.19307 6.71912 9.19307 7.64381V17.8165Z" fill="#5F266D"/>
</svg>
