<svg width="29" height="28" viewBox="0 0 29 28" fill="none" xmlns="http://www.w3.org/2000/svg">
<path d="M21.7988 19.0874C21.6827 19.0874 21.5713 19.1335 21.4892 19.2156C21.4071 19.2977 21.361 19.4091 21.361 19.5252V25.8121C21.3608 25.8697 21.372 25.9268 21.3939 25.9801C21.4158 26.0333 21.448 26.0818 21.4887 26.1226C21.5294 26.1634 21.5777 26.1957 21.6309 26.2178C21.6841 26.2399 21.7412 26.2513 21.7988 26.2513C21.8564 26.2513 21.9134 26.2399 21.9666 26.2178C22.0198 26.1957 22.0682 26.1634 22.1088 26.1226C22.1495 26.0818 22.1817 26.0333 22.2037 25.9801C22.2256 25.9268 22.2368 25.8697 22.2366 25.8121V19.5252C22.2366 19.4091 22.1904 19.2977 22.1083 19.2156C22.0262 19.1335 21.9149 19.0874 21.7988 19.0874Z" fill="currentColor"/>
<path d="M20.5022 10.2256C20.2372 6.0562 17.392 3.29235 15.1883 6.93189C15.1334 7.0326 15.1201 7.15085 15.1515 7.26121C15.1828 7.37156 15.2562 7.46522 15.3559 7.52202C15.4556 7.57882 15.5735 7.59424 15.6845 7.56495C15.7954 7.53567 15.8904 7.46402 15.949 7.36542C17.6828 4.43183 19.4068 7.19477 19.6415 10.4224C19.7009 11.8369 19.6783 13.5972 19.3431 14.7229C19.0772 14.4525 18.7591 14.239 18.4081 14.0953C18.0572 13.9516 17.6807 13.8808 17.3015 13.8871C16.9223 13.8934 16.5484 13.9767 16.2024 14.1319C15.8564 14.2872 15.5456 14.5111 15.2888 14.7902C14.8951 12.8428 14.9134 10.8345 15.3425 8.89457C15.3716 8.78336 15.3558 8.66516 15.2985 8.5655C15.2412 8.46583 15.147 8.39269 15.0363 8.36187C14.9255 8.33106 14.8071 8.34504 14.7066 8.40079C14.6061 8.45654 14.5315 8.5496 14.499 8.65987C14.3603 9.16903 14.2637 9.68874 14.2102 10.2137L13.959 10.5304C12.9891 11.7459 12.4574 13.253 12.45 14.808V25.8124C12.4498 25.87 12.461 25.9271 12.4829 25.9804C12.5048 26.0337 12.537 26.0821 12.5777 26.1229C12.6184 26.1637 12.6667 26.1961 12.7199 26.2182C12.7731 26.2402 12.8302 26.2516 12.8878 26.2516C12.9454 26.2516 13.0024 26.2402 13.0556 26.2182C13.1088 26.1961 13.1572 26.1637 13.1978 26.1229C13.2385 26.0821 13.2707 26.0337 13.2926 25.9804C13.3146 25.9271 13.3258 25.87 13.3256 25.8124V14.808C13.3308 13.7544 13.614 12.721 14.1466 11.8119C14.152 13.3888 14.2149 14.8719 14.829 15.8652C15.316 16.6519 16.0917 17.0913 17.4339 17.1001C20.3046 17.058 20.5033 14.3111 20.5389 11.7911C21.0769 12.7015 21.3608 13.7396 21.3609 14.7971V17.7743C21.3627 17.8893 21.4096 17.9989 21.4915 18.0795C21.5735 18.1602 21.6838 18.2054 21.7988 18.2054C21.9137 18.2054 22.024 18.1602 22.106 18.0795C22.1879 17.9989 22.2348 17.8892 22.2366 17.7743V14.7971C22.2275 13.1142 21.6117 11.4911 20.5022 10.2256ZM17.4339 16.2245C17.1254 16.2544 16.8141 16.2171 16.5214 16.1153C16.2288 16.0134 15.9616 15.8493 15.7384 15.6344C15.9083 15.3674 16.142 15.1469 16.4184 14.9928C16.6949 14.8388 17.0053 14.7559 17.3217 14.7517C17.6381 14.7475 17.9506 14.8222 18.231 14.9689C18.5114 15.1157 18.7508 15.3299 18.9278 15.5923C18.748 15.81 18.5183 15.9812 18.2582 16.0913C17.9982 16.2013 17.7154 16.247 17.4339 16.2245Z" fill="currentColor"/>
<path d="M18.9809 21.8681C17.9086 22.1524 16.7807 22.1524 15.7084 21.8681C15.5968 21.8401 15.4787 21.8572 15.3796 21.9156C15.2805 21.974 15.2084 22.0691 15.1789 22.1803C15.1493 22.2915 15.1647 22.4098 15.2217 22.5097C15.2787 22.6096 15.3728 22.6831 15.4835 22.7142C16.7031 23.038 17.9861 23.038 19.2057 22.7142C19.3179 22.6844 19.4137 22.6112 19.472 22.5108C19.5302 22.4104 19.5462 22.2909 19.5164 22.1787C19.4865 22.0665 19.4134 21.9707 19.3129 21.9125C19.2125 21.8542 19.0931 21.8383 18.9809 21.8681Z" fill="currentColor"/>
<path d="M16.2899 21.172C16.9876 21.0519 17.7007 21.0519 18.3984 21.172C18.512 21.1899 18.6281 21.1623 18.7216 21.0953C18.815 21.0282 18.8784 20.9271 18.8978 20.8137C18.9173 20.7004 18.8914 20.5839 18.8257 20.4895C18.76 20.3951 18.6598 20.3303 18.5467 20.3092C17.7509 20.172 16.9374 20.172 16.1416 20.3092C16.0285 20.3303 15.9282 20.3951 15.8625 20.4895C15.7968 20.5839 15.7709 20.7004 15.7904 20.8138C15.8099 20.9271 15.8732 21.0283 15.9667 21.0953C16.0602 21.1624 16.1763 21.1899 16.2899 21.172Z" fill="currentColor"/>
<path d="M13.0328 9.11049C13.1353 9.00704 13.214 8.88242 13.2634 8.74537C13.3127 8.60832 13.3315 8.46214 13.3185 8.31706C13.3054 8.17198 13.2608 8.03151 13.1878 7.90547C13.1148 7.77943 13.0151 7.67086 12.8957 7.58737L11.2982 6.50226C11.1765 6.42208 11.0388 6.36947 10.8947 6.34809C10.7505 6.32672 10.6034 6.33711 10.4637 6.37853C10.324 6.41995 10.195 6.4914 10.0858 6.58788C9.97663 6.68437 9.88983 6.80355 9.83151 6.93709L8.72896 9.47409L5.82887 13.7434C4.85806 13.0752 3.53703 13.7673 3.13915 14.8125C3.08825 14.9157 3.08001 15.0348 3.11622 15.144C3.15243 15.2532 3.23017 15.3438 3.33264 15.3962C3.43511 15.4485 3.55406 15.4585 3.66379 15.4238C3.77351 15.3891 3.86518 15.3127 3.91897 15.211C4.12389 14.6552 4.77695 14.1135 5.33759 14.4683L7.68331 16.0614C8.13319 16.3818 8.02932 17.084 7.66727 17.4748L5.62787 19.7725C5.50189 19.9427 5.31947 20.0625 5.11323 20.1106C4.90699 20.1586 4.69038 20.1318 4.50214 20.0348L2.81589 18.8872C2.65578 18.749 2.55059 18.558 2.51944 18.3488C2.48828 18.1396 2.53324 17.9262 2.64614 17.7474L3.13653 16.7711C3.18666 16.6675 3.19404 16.5485 3.15707 16.4395C3.1201 16.3306 3.04175 16.2406 2.93896 16.189C2.83617 16.1374 2.7172 16.1283 2.60776 16.1637C2.49832 16.1991 2.40721 16.2761 2.35411 16.3782L1.86499 17.3519C1.65474 17.7202 1.58537 18.1523 1.6698 18.568C1.75422 18.9836 1.98668 19.3544 2.32397 19.6115L4.01001 20.759C4.37269 20.9809 4.80408 21.0623 5.22268 20.9878C5.64128 20.9134 6.01812 20.6882 6.282 20.3548L8.32119 18.0573C9.04141 17.2943 9.068 15.9273 8.17238 15.3351L9.3069 13.6639C9.33939 13.6163 9.36218 13.5628 9.37395 13.5064C9.38573 13.4501 9.38627 13.3919 9.37554 13.3353C9.3648 13.2788 9.34301 13.2249 9.3114 13.1767C9.2798 13.1286 9.239 13.0871 9.19135 13.0548C9.1437 13.0224 9.09014 12.9998 9.03373 12.9882C8.97732 12.9766 8.91918 12.9762 8.86263 12.9872C8.80608 12.9981 8.75224 13.02 8.70419 13.0518C8.65615 13.0835 8.61484 13.1244 8.58263 13.1722L7.44921 14.8416L6.55414 14.2342L9.21354 10.3191L10.1084 10.9267L9.56771 11.7228C9.5354 11.7704 9.51277 11.8238 9.50111 11.8801C9.48946 11.9364 9.48901 11.9945 9.49979 12.0509C9.51057 12.1074 9.53236 12.1612 9.56393 12.2093C9.59551 12.2573 9.63623 12.2987 9.68379 12.331C9.73134 12.3633 9.7848 12.3859 9.8411 12.3976C9.8974 12.4092 9.95544 12.4097 10.0119 12.3989C10.0684 12.3881 10.1222 12.3663 10.1702 12.3348C10.2183 12.3032 10.2597 12.2625 10.292 12.2149L11.043 11.1092L13.0328 9.11049ZM10.6344 7.28594C10.6808 7.20653 10.7308 7.19074 10.8061 7.22649L12.4038 8.31184C12.4661 8.36799 12.4678 8.42068 12.4122 8.4929L10.6671 10.2456L9.6483 9.55532L10.6344 7.28594Z" fill="currentColor"/>
<path d="M27.1313 8.24541L25.7306 7.47924L24.9645 6.0786C24.9233 6.01402 24.8665 5.96087 24.7994 5.92405C24.7322 5.88722 24.6569 5.86792 24.5803 5.86792C24.5037 5.86792 24.4284 5.88722 24.3612 5.92405C24.2941 5.96087 24.2373 6.01402 24.1962 6.0786L23.4302 7.47924L22.0295 8.24541C21.9606 8.28313 21.9031 8.3387 21.8631 8.40629C21.823 8.47387 21.8019 8.55099 21.8019 8.62956C21.8019 8.70813 21.823 8.78525 21.8631 8.85283C21.9031 8.92042 21.9606 8.97599 22.0295 9.01371L23.4302 9.77967L24.1961 11.1803C24.2345 11.2484 24.2903 11.3051 24.3578 11.3445C24.4253 11.3839 24.5021 11.4047 24.5803 11.4047C24.6585 11.4047 24.7352 11.3839 24.8027 11.3445C24.8702 11.3051 24.9261 11.2484 24.9644 11.1803L25.7306 9.77967L27.1313 9.01371C27.1994 8.97532 27.256 8.91951 27.2955 8.85201C27.3349 8.78451 27.3557 8.70773 27.3557 8.62956C27.3557 8.55138 27.3349 8.47461 27.2955 8.40711C27.256 8.3396 27.1994 8.2838 27.1313 8.24541ZM25.1979 9.07293C25.0156 9.13827 24.6857 9.90853 24.5803 10.0578L24.1369 9.24694C24.0716 9.06463 23.3013 8.73498 23.1521 8.62954L23.9629 8.18598C24.1452 8.12065 24.4749 7.3504 24.5803 7.20113C24.689 7.35513 25.0131 8.11763 25.1979 8.18599L26.0087 8.62956L25.1979 9.07293Z" fill="currentColor"/>
<path d="M19.6277 4.42767L20.7259 5.02816L21.3264 6.12632C21.3641 6.19523 21.4196 6.25273 21.4872 6.29279C21.5548 6.33284 21.6319 6.35398 21.7105 6.35398C21.7891 6.35398 21.8662 6.33284 21.9338 6.29279C22.0014 6.25273 22.0569 6.19523 22.0947 6.12632L22.6952 5.02816L23.7933 4.42767C23.8614 4.38927 23.918 4.33346 23.9575 4.26596C23.9969 4.19846 24.0177 4.12169 24.0177 4.04352C24.0177 3.96535 23.9969 3.88858 23.9575 3.82108C23.918 3.75358 23.8614 3.69777 23.7933 3.65937L22.6952 3.05887L22.0947 1.96072C22.0534 1.89623 21.9966 1.84316 21.9295 1.8064C21.8624 1.76964 21.787 1.75037 21.7105 1.75037C21.634 1.75037 21.5586 1.76964 21.4915 1.8064C21.4244 1.84316 21.3676 1.89623 21.3264 1.96072L20.7259 3.05887L19.6277 3.65937C19.5596 3.69777 19.503 3.75358 19.4635 3.82108C19.4241 3.88858 19.4033 3.96535 19.4033 4.04352C19.4033 4.12169 19.4241 4.19846 19.4635 4.26596C19.503 4.33346 19.5596 4.38927 19.6277 4.42767ZM21.2586 3.76561C21.4318 3.69342 21.6141 3.2292 21.7105 3.08324L21.9884 3.59161C22.0606 3.76486 22.5248 3.94716 22.6708 4.04355L22.1624 4.32144C21.9892 4.39363 21.8069 4.85786 21.7105 5.00382C21.6132 4.85463 21.4331 4.39556 21.2586 4.32144L20.7502 4.04353L21.2586 3.76561Z" fill="currentColor"/>
</svg>
