<svg width="20" height="20" viewBox="0 0 20 20" fill="none" xmlns="http://www.w3.org/2000/svg">
<path d="M17.0834 13.3333V15.4167C17.0834 17.025 15.7751 18.3333 14.1667 18.3333H5.83341C4.22508 18.3333 2.91675 17.025 2.91675 15.4167V14.875C2.91675 13.5667 3.98341 12.5 5.29175 12.5H16.2501C16.7084 12.5 17.0834 12.875 17.0834 13.3333Z" fill="#484848"/>
<path d="M12.9167 1.6665H7.08342C3.75008 1.6665 2.91675 2.49984 2.91675 5.83317V12.1498C3.55008 11.5915 4.38341 11.2498 5.29175 11.2498H16.2501C16.7084 11.2498 17.0834 10.8748 17.0834 10.4165V5.83317C17.0834 2.49984 16.2501 1.6665 12.9167 1.6665ZM10.8334 8.95817H6.66675C6.32508 8.95817 6.04175 8.67484 6.04175 8.33317C6.04175 7.9915 6.32508 7.70817 6.66675 7.70817H10.8334C11.1751 7.70817 11.4584 7.9915 11.4584 8.33317C11.4584 8.67484 11.1751 8.95817 10.8334 8.95817ZM13.3334 6.0415H6.66675C6.32508 6.0415 6.04175 5.75817 6.04175 5.4165C6.04175 5.07484 6.32508 4.7915 6.66675 4.7915H13.3334C13.6751 4.7915 13.9584 5.07484 13.9584 5.4165C13.9584 5.75817 13.6751 6.0415 13.3334 6.0415Z" fill="#484848"/>
</svg>
