<svg width="19" height="19" viewBox="0 0 19 19" fill="none" xmlns="http://www.w3.org/2000/svg">
<path d="M6.92773 12.348L11.8327 7.44299" stroke="#168E85" stroke-width="1.125" stroke-linecap="round" stroke-linejoin="round"/>
<path d="M7.23501 8.67312C7.74449 8.67312 8.15749 8.26012 8.15749 7.75063C8.15749 7.24115 7.74449 6.82812 7.23501 6.82812C6.72553 6.82812 6.3125 7.24115 6.3125 7.75063C6.3125 8.26012 6.72553 8.67312 7.23501 8.67312Z" stroke="#168E85" stroke-width="1.125" stroke-linecap="round" stroke-linejoin="round"/>
<path d="M12.1393 12.9629C12.6488 12.9629 13.0618 12.5499 13.0618 12.0404C13.0618 11.5309 12.6488 11.1179 12.1393 11.1179C11.6298 11.1179 11.2168 11.5309 11.2168 12.0404C11.2168 12.5499 11.6298 12.9629 12.1393 12.9629Z" stroke="#168E85" stroke-width="1.125" stroke-linecap="round" stroke-linejoin="round"/>
<path d="M9.5 17.3955C13.6421 17.3955 17 14.0376 17 9.89551C17 5.75337 13.6421 2.39551 9.5 2.39551C5.35786 2.39551 2 5.75337 2 9.89551C2 14.0376 5.35786 17.3955 9.5 17.3955Z" stroke="#168E85" stroke-width="1.125" stroke-linecap="round" stroke-linejoin="round"/>
</svg>
