<svg width="18" height="18" viewBox="0 0 18 18" fill="none" xmlns="http://www.w3.org/2000/svg">
<path d="M6.42773 11.4519L11.3327 6.54688" stroke="#00A51E" stroke-width="1.125" stroke-linecap="round" stroke-linejoin="round"/>
<path d="M6.73501 7.77859C7.24449 7.77859 7.65749 7.36558 7.65749 6.8561C7.65749 6.34662 7.24449 5.93359 6.73501 5.93359C6.22553 5.93359 5.8125 6.34662 5.8125 6.8561C5.8125 7.36558 6.22553 7.77859 6.73501 7.77859Z" stroke="#00A51E" stroke-width="1.125" stroke-linecap="round" stroke-linejoin="round"/>
<path d="M11.6393 12.0676C12.1488 12.0676 12.5618 11.6546 12.5618 11.1451C12.5618 10.6357 12.1488 10.2227 11.6393 10.2227C11.1298 10.2227 10.7168 10.6357 10.7168 11.1451C10.7168 11.6546 11.1298 12.0676 11.6393 12.0676Z" stroke="#00A51E" stroke-width="1.125" stroke-linecap="round" stroke-linejoin="round"/>
<path d="M9 16.5C13.1421 16.5 16.5 13.1421 16.5 9C16.5 4.85786 13.1421 1.5 9 1.5C4.85786 1.5 1.5 4.85786 1.5 9C1.5 13.1421 4.85786 16.5 9 16.5Z" stroke="#00A51E" stroke-width="1.125" stroke-linecap="round" stroke-linejoin="round"/>
</svg>
