<svg width="24" height="24" viewBox="0 0 24 24" fill="none" xmlns="http://www.w3.org/2000/svg">
<path d="M12 22C17.5228 22 22 17.5228 22 12C22 6.47715 17.5228 2 12 2C6.47715 2 2 6.47715 2 12C2 17.5228 6.47715 22 12 22Z" stroke="#FB9506" stroke-width="1.5" stroke-linecap="round" stroke-linejoin="round"/>
<path d="M12.8654 7.75531L13.7454 9.51531C13.8654 9.76031 14.1854 9.99531 14.4554 10.0403L16.0504 10.3053C17.0704 10.4753 17.3104 11.2153 16.5754 11.9453L15.3354 13.1853C15.1254 13.3953 15.0104 13.8003 15.0754 14.0903L15.4304 15.6253C15.7104 16.8403 15.0654 17.3103 13.9904 16.6753L12.4954 15.7903C12.2254 15.6303 11.7804 15.6303 11.5054 15.7903L10.0104 16.6753C8.94044 17.3103 8.29044 16.8353 8.57044 15.6253L8.92544 14.0903C8.99044 13.8003 8.87544 13.3953 8.66544 13.1853L7.42544 11.9453C6.69544 11.2153 6.93044 10.4753 7.95044 10.3053L9.54544 10.0403C9.81044 9.99531 10.1304 9.76031 10.2504 9.51531L11.1304 7.75531C11.6104 6.80031 12.3904 6.80031 12.8654 7.75531Z" stroke="#FB9506" stroke-width="1.5" stroke-linecap="round" stroke-linejoin="round"/>
</svg>
