<svg width="19" height="19" viewBox="0 0 19 19" fill="none" xmlns="http://www.w3.org/2000/svg">
<path d="M9.58203 1.9834C5.44953 1.9834 2.08203 5.3509 2.08203 9.4834C2.08203 13.6159 5.44953 16.9834 9.58203 16.9834C13.7145 16.9834 17.082 13.6159 17.082 9.4834C17.082 5.3509 13.7145 1.9834 9.58203 1.9834ZM13.167 7.7584L8.91453 12.0109C8.80953 12.1159 8.66703 12.1759 8.51703 12.1759C8.36703 12.1759 8.22453 12.1159 8.11953 12.0109L5.99703 9.8884C5.77953 9.6709 5.77953 9.3109 5.99703 9.0934C6.21453 8.8759 6.57453 8.8759 6.79203 9.0934L8.51703 10.8184L12.372 6.9634C12.5895 6.7459 12.9495 6.7459 13.167 6.9634C13.3845 7.1809 13.3845 7.5334 13.167 7.7584Z" fill="currentColor"/>
</svg>
