<svg width="45" height="40" viewBox="0 0 45 40" fill="none" xmlns="http://www.w3.org/2000/svg">
<circle cx="24.9336" cy="20" r="19.5" stroke="white"/>
<g clip-path="url(#clip0_1399_11070)">
<g clip-path="url(#clip1_1399_11070)">
<g clip-path="url(#clip2_1399_11070)">
<mask id="mask0_1399_11070" style="mask-type:luminance" maskUnits="userSpaceOnUse" x="16" y="12" width="16" height="15">
<path d="M31.1367 12H16.1367V27H31.1367V12Z" fill="white"/>
</mask>
<g mask="url(#mask0_1399_11070)">
<path fill-rule="evenodd" clip-rule="evenodd" d="M27.6269 26.237C27.8282 26.3795 28.0876 26.4151 28.3188 26.3276C28.5501 26.2395 28.7201 26.042 28.7713 25.8026C29.3144 23.2501 30.6319 16.7895 31.1263 14.4676C31.1638 14.2926 31.1013 14.1107 30.9638 13.9938C30.8263 13.877 30.6357 13.8432 30.4657 13.9063C27.8451 14.8763 19.7745 17.9045 16.4757 19.1251C16.2663 19.2026 16.1301 19.4038 16.137 19.6245C16.1445 19.8457 16.2932 20.0376 16.5076 20.102C17.987 20.5445 19.9288 21.1601 19.9288 21.1601C19.9288 21.1601 20.8363 23.9007 21.3095 25.2945C21.3688 25.4695 21.5057 25.607 21.6863 25.6545C21.8663 25.7013 22.0588 25.652 22.1932 25.5251C22.9532 24.8076 24.1282 23.6982 24.1282 23.6982C24.1282 23.6982 26.3607 25.3351 27.6269 26.237ZM20.7457 20.8138L21.7951 24.2751L22.0282 22.0832C22.0282 22.0832 26.0826 18.4263 28.3938 16.342C28.4613 16.2807 28.4707 16.1782 28.4144 16.1063C28.3588 16.0345 28.2563 16.0176 28.1794 16.0663C25.5007 17.777 20.7457 20.8138 20.7457 20.8138Z" fill="white"/>
</g>
</g>
</g>
</g>
<defs>
<clipPath id="clip0_1399_11070">
<rect width="15" height="15" fill="white" transform="translate(16.1367 12)"/>
</clipPath>
<clipPath id="clip1_1399_11070">
<rect width="15" height="15" fill="white" transform="translate(16.1367 12)"/>
</clipPath>
<clipPath id="clip2_1399_11070">
<rect width="15" height="15" fill="white" transform="translate(16.1367 12)"/>
</clipPath>
</defs>
</svg>
