<svg width="20" height="20" viewBox="0 0 20 20" fill="none" xmlns="http://www.w3.org/2000/svg">
<path d="M10.0001 1.6665C7.81675 1.6665 6.04175 3.4415 6.04175 5.62484C6.04175 7.7665 7.71675 9.49984 9.90008 9.57484C9.96675 9.5665 10.0334 9.5665 10.0834 9.57484C10.1001 9.57484 10.1084 9.57484 10.1251 9.57484C10.1334 9.57484 10.1334 9.57484 10.1417 9.57484C12.2751 9.49984 13.9501 7.7665 13.9584 5.62484C13.9584 3.4415 12.1834 1.6665 10.0001 1.6665Z" fill="#484848"/>
<path d="M14.2333 11.7919C11.9083 10.2419 8.11663 10.2419 5.77497 11.7919C4.71663 12.5002 4.1333 13.4586 4.1333 14.4836C4.1333 15.5086 4.71663 16.4586 5.76663 17.1586C6.9333 17.9419 8.46663 18.3336 9.99997 18.3336C11.5333 18.3336 13.0666 17.9419 14.2333 17.1586C15.2833 16.4502 15.8666 15.5002 15.8666 14.4669C15.8583 13.4419 15.2833 12.4919 14.2333 11.7919Z" fill="#484848"/>
</svg>
