<svg width="10" height="16" viewBox="0 0 10 16" fill="none" xmlns="http://www.w3.org/2000/svg">
<path d="M8.84976 0.491576C8.753 0.394569 8.63805 0.317604 8.5115 0.265091C8.38494 0.212578 8.24927 0.185547 8.11226 0.185547C7.97524 0.185547 7.83957 0.212578 7.71302 0.265091C7.58647 0.317604 7.47152 0.394569 7.37476 0.491576L0.449758 7.41657C0.372505 7.49367 0.311216 7.58524 0.269398 7.68605C0.22758 7.78687 0.206055 7.89493 0.206055 8.00408C0.206055 8.11322 0.22758 8.22128 0.269398 8.32209C0.311216 8.42291 0.372505 8.51448 0.449758 8.59157L7.37476 15.5166C7.78309 15.9249 8.44143 15.9249 8.84976 15.5166C9.25809 15.1082 9.25809 14.4499 8.84976 14.0416L2.81643 7.99991L8.85809 1.95824C9.25809 1.55824 9.25809 0.891576 8.84976 0.491576Z" fill="#4A5660" stroke="#4A5660" stroke-width="0.22807"/>
</svg>
