<svg width="45" height="40" viewBox="0 0 45 40" fill="none" xmlns="http://www.w3.org/2000/svg">
<circle cx="24.9336" cy="20" r="19.5" stroke="white"/>
<g clip-path="url(#clip0_1399_11053)">
<g clip-path="url(#clip1_1399_11053)">
<g clip-path="url(#clip2_1399_11053)">
<path d="M30.9002 13H18.969C16.6281 13 14.7305 14.8068 14.7305 17.0356V22.7144C14.7305 24.9432 16.6281 26.75 18.969 26.75H30.9002C33.241 26.75 35.1387 24.9432 35.1387 22.7144V17.0356C35.1387 14.8068 33.241 13 30.9002 13ZM28.0337 20.1513L22.4531 22.6855C22.3044 22.753 22.1326 22.6497 22.1326 22.4929V17.2662C22.1326 17.1071 22.3089 17.004 22.4579 17.0759L28.0385 19.7685C28.2044 19.8485 28.2016 20.0751 28.0337 20.1513Z" fill="white"/>
</g>
</g>
</g>
<defs>
<clipPath id="clip0_1399_11053">
<rect width="22" height="13.75" fill="white" transform="translate(13.9336 13)"/>
</clipPath>
<clipPath id="clip1_1399_11053">
<rect width="22" height="13.75" fill="white" transform="translate(13.9336 13)"/>
</clipPath>
<clipPath id="clip2_1399_11053">
<rect width="22" height="13.75" fill="white" transform="translate(13.9336 13)"/>
</clipPath>
</defs>
</svg>
