<svg width="24" height="24" viewBox="0 0 24 24" fill="currentColor" xmlns="http://www.w3.org/2000/svg">
<g id="vuesax/bold/calendar-2">
<g id="calendar-2">
<path id="Vector" d="M16.75 3.56V4.01584L17.2039 4.05787C18.4607 4.17424 19.3396 4.60009 19.9285 5.22534C20.5186 5.8518 20.8659 6.72969 20.9607 7.83991C20.9603 7.84 20.9601 7.84 20.96 7.84H20.96H4.04161C4.04098 7.83968 4.04018 7.83919 4.03936 7.83853C4.13436 6.72896 4.48156 5.85155 5.07144 5.22534C5.66041 4.60009 6.5393 4.17424 7.79608 4.05787L8.24999 4.01584V3.56V2C8.24999 1.86614 8.36613 1.75 8.49999 1.75C8.63384 1.75 8.74999 1.86614 8.74999 2V3.5V4H9.24999H15.75H16.25V3.5V2C16.25 1.86614 16.3661 1.75 16.5 1.75C16.6338 1.75 16.75 1.86614 16.75 2V3.56Z" stroke="currentColor"/>
<path id="Vector_2" d="M20.5 9.84009H4.5C3.95 9.84009 3.5 10.2901 3.5 10.8401V17.0001C3.5 20.0001 5 22.0001 8.5 22.0001H16.5C20 22.0001 21.5 20.0001 21.5 17.0001V10.8401C21.5 10.2901 21.05 9.84009 20.5 9.84009ZM9.71 18.2101C9.61 18.3001 9.5 18.3701 9.38 18.4201C9.26 18.4701 9.13 18.5001 9 18.5001C8.87 18.5001 8.74 18.4701 8.62 18.4201C8.5 18.3701 8.39 18.3001 8.29 18.2101C8.11 18.0201 8 17.7601 8 17.5001C8 17.2401 8.11 16.9801 8.29 16.7901C8.39 16.7001 8.5 16.6301 8.62 16.5801C8.86 16.4801 9.14 16.4801 9.38 16.5801C9.5 16.6301 9.61 16.7001 9.71 16.7901C9.89 16.9801 10 17.2401 10 17.5001C10 17.7601 9.89 18.0201 9.71 18.2101ZM9.92 14.3801C9.87 14.5001 9.8 14.6101 9.71 14.7101C9.61 14.8001 9.5 14.8701 9.38 14.9201C9.26 14.9701 9.13 15.0001 9 15.0001C8.87 15.0001 8.74 14.9701 8.62 14.9201C8.5 14.8701 8.39 14.8001 8.29 14.7101C8.2 14.6101 8.13 14.5001 8.08 14.3801C8.03 14.2601 8 14.1301 8 14.0001C8 13.8701 8.03 13.7401 8.08 13.6201C8.13 13.5001 8.2 13.3901 8.29 13.2901C8.39 13.2001 8.5 13.1301 8.62 13.0801C8.86 12.9801 9.14 12.9801 9.38 13.0801C9.5 13.1301 9.61 13.2001 9.71 13.2901C9.8 13.3901 9.87 13.5001 9.92 13.6201C9.97 13.7401 10 13.8701 10 14.0001C10 14.1301 9.97 14.2601 9.92 14.3801ZM13.21 14.7101C13.11 14.8001 13 14.8701 12.88 14.9201C12.76 14.9701 12.63 15.0001 12.5 15.0001C12.37 15.0001 12.24 14.9701 12.12 14.9201C12 14.8701 11.89 14.8001 11.79 14.7101C11.61 14.5201 11.5 14.2601 11.5 14.0001C11.5 13.7401 11.61 13.4801 11.79 13.2901C11.89 13.2001 12 13.1301 12.12 13.0801C12.36 12.9701 12.64 12.9701 12.88 13.0801C13 13.1301 13.11 13.2001 13.21 13.2901C13.39 13.4801 13.5 13.7401 13.5 14.0001C13.5 14.2601 13.39 14.5201 13.21 14.7101Z"/>
</g>
</g>
</svg>
